<svg width="518" height="361" viewBox="0 0 518 361" fill="none" xmlns="http://www.w3.org/2000/svg">
<g filter="url(#filter0_d_658_14715)">
<path d="M31 36.3757C31 29.5408 36.5408 24 43.3757 24H474.624C481.459 24 487 29.5408 487 36.3757V309.624C487 316.459 481.459 322 474.624 322H43.3757C36.5408 322 31 316.459 31 309.624V36.3757Z" fill="white"/>
</g>
<path d="M50.584 141.5C50.584 139.337 52.3375 137.583 54.5007 137.583H252.292C254.455 137.583 256.209 139.337 256.209 141.5V165C256.209 167.163 254.455 168.916 252.292 168.916H54.5007C52.3375 168.916 50.584 167.163 50.584 165V141.5Z" fill="white"/>
<path d="M51.0736 141.5C51.0736 139.607 52.6079 138.073 54.5007 138.073H252.292C254.185 138.073 255.719 139.607 255.719 141.5V165C255.719 166.892 254.185 168.427 252.292 168.427H54.5007C52.6079 168.427 51.0736 166.892 51.0736 165V141.5Z" stroke="black" stroke-opacity="0.06" stroke-width="0.979167"/>
<path d="M275.792 141.5C275.792 139.337 277.546 137.583 279.709 137.583H477.5C479.663 137.583 481.417 139.337 481.417 141.5V165C481.417 167.163 479.663 168.916 477.5 168.916H279.709C277.546 168.916 275.792 167.163 275.792 165V141.5Z" fill="white"/>
<path d="M276.282 141.5C276.282 139.607 277.816 138.073 279.709 138.073H477.5C479.393 138.073 480.927 139.607 480.927 141.5V165C480.927 166.892 479.393 168.427 477.5 168.427H279.709C277.816 168.427 276.282 166.892 276.282 165V141.5Z" stroke="black" stroke-opacity="0.06" stroke-width="0.979167"/>
<path d="M466.586 150.525L463.784 153.522L460.981 150.525C460.858 150.397 460.693 150.327 460.522 150.329C460.351 150.33 460.187 150.404 460.066 150.533C459.945 150.663 459.877 150.838 459.875 151.021C459.874 151.204 459.939 151.38 460.058 151.512L463.322 155.003C463.445 155.134 463.611 155.207 463.784 155.207C463.957 155.207 464.123 155.134 464.245 155.003L467.509 151.512C467.571 151.448 467.621 151.37 467.655 151.285C467.69 151.2 467.708 151.108 467.708 151.016C467.709 150.923 467.693 150.831 467.66 150.745C467.627 150.66 467.578 150.582 467.517 150.516C467.456 150.45 467.383 150.399 467.303 150.364C467.223 150.328 467.137 150.311 467.05 150.312C466.963 150.312 466.878 150.332 466.798 150.368C466.718 150.405 466.646 150.458 466.586 150.525Z" fill="#A7A7A7"/>
<path d="M56.1065 121.775V126.792L52.5815 121.775H51.3477V130H52.9692V124.971L56.4942 130H57.728V121.775H56.1065ZM64.5412 130H66.3037L63.4132 121.775H61.404L58.5252 130H60.276L60.7695 128.519H64.0477L64.5412 130ZM61.2865 127.004L62.4145 123.643L63.5425 127.004H61.2865ZM75.1511 121.775H73.4826L71.1326 125.664L68.7709 121.775H67.1024V130H68.7239V124.677L71.0386 128.484H71.2266L73.5414 124.665V130H75.1511V121.775ZM78.3052 128.449V126.604H81.4189V125.077H78.3052V123.326H81.7127V121.775H76.6837V130H81.7714V128.449H78.3052Z" fill="#B1B1B1"/>
<path d="M281.996 121.775H275.945V123.326H278.154V130H279.775V123.326H281.996V121.775ZM289.411 121.775H287.578L285.792 125.206L284.006 121.775H282.173L284.981 126.792V130H286.591V126.792L289.411 121.775ZM293.266 121.775H290.199V130H291.821V127.297H293.266C294.852 127.297 296.074 126.075 296.074 124.536C296.074 122.997 294.852 121.775 293.266 121.775ZM293.266 125.782H291.821V123.291H293.266C293.959 123.291 294.464 123.819 294.464 124.536C294.464 125.241 293.959 125.782 293.266 125.782ZM298.751 128.449V126.604H301.865V125.077H298.751V123.326H302.159V121.775H297.13V130H302.217V128.449H298.751Z" fill="#B1B1B1"/>
<circle cx="42.7497" cy="35.7497" r="3.91667" fill="#E5E5EB"/>
<circle cx="54.5007" cy="35.7497" r="3.91667" fill="#E5E5EB"/>
<circle cx="66.2506" cy="35.7497" r="3.91667" fill="#E5E5EB"/>
<g filter="url(#filter1_d_658_14715)">
<path d="M31 47H487V94H31V47Z" fill="white"/>
</g>
<rect x="447.916" y="69.0415" width="23.5" height="3.91667" rx="1.95833" fill="#ABD2FF"/>
<rect x="420.5" y="69.0415" width="23.5" height="3.91667" rx="1.95833" fill="#FFD3AB"/>
<path d="M82.6648 75.3315C84.1805 75.3315 85.5083 74.5677 86.2015 73.3927L84.8033 72.582C84.4155 73.2987 83.6048 73.7452 82.6648 73.7452C81.055 73.7452 79.9975 72.629 79.9975 71.0545C79.9975 69.4682 81.055 68.352 82.6648 68.352C83.6048 68.352 84.4038 68.7985 84.8033 69.527L86.2015 68.7162C85.4965 67.5412 84.1688 66.7775 82.6648 66.7775C80.1738 66.7775 78.3877 68.6457 78.3877 71.0545C78.3877 73.4515 80.1738 75.3315 82.6648 75.3315ZM88.7346 70.3025V69.292H87.2189V75.167H88.7346V72.3587C88.7346 71.125 89.7334 70.7725 90.5206 70.8665V69.1745C89.7804 69.1745 89.0401 69.5035 88.7346 70.3025ZM92.4698 72.8522H96.8996C96.9349 72.6525 96.9583 72.4527 96.9583 72.2295C96.9583 70.5022 95.7246 69.1275 93.9856 69.1275C92.1408 69.1275 90.8836 70.4787 90.8836 72.2295C90.8836 73.9802 92.1291 75.3315 94.1031 75.3315C95.2311 75.3315 96.1123 74.8732 96.6646 74.0742L95.4426 73.3692C95.1841 73.71 94.7141 73.9567 94.1266 73.9567C93.3276 73.9567 92.6813 73.6277 92.4698 72.8522ZM92.4463 71.6772C92.6226 70.9252 93.1748 70.4905 93.9856 70.4905C94.6201 70.4905 95.2546 70.8312 95.4426 71.6772H92.4463ZM102.436 69.292V69.9852C102.013 69.4565 101.378 69.1275 100.52 69.1275C98.9576 69.1275 97.6651 70.4787 97.6651 72.2295C97.6651 73.9802 98.9576 75.3315 100.52 75.3315C101.378 75.3315 102.013 75.0025 102.436 74.4737V75.167H103.951V69.292H102.436ZM100.802 73.8862C99.8741 73.8862 99.1808 73.2165 99.1808 72.2295C99.1808 71.2425 99.8741 70.5727 100.802 70.5727C101.742 70.5727 102.436 71.2425 102.436 72.2295C102.436 73.2165 101.742 73.8862 100.802 73.8862ZM108.686 70.749V69.292H107.359V67.647L105.843 68.1052V69.292H104.821V70.749H105.843V73.193C105.843 74.7792 106.56 75.402 108.686 75.167V73.7922C107.817 73.8392 107.359 73.8275 107.359 73.193V70.749H108.686ZM110.852 72.8522H115.282C115.317 72.6525 115.341 72.4527 115.341 72.2295C115.341 70.5022 114.107 69.1275 112.368 69.1275C110.523 69.1275 109.266 70.4787 109.266 72.2295C109.266 73.9802 110.511 75.3315 112.485 75.3315C113.613 75.3315 114.495 74.8732 115.047 74.0742L113.825 73.3692C113.566 73.71 113.096 73.9567 112.509 73.9567C111.71 73.9567 111.064 73.6277 110.852 72.8522ZM110.829 71.6772C111.005 70.9252 111.557 70.4905 112.368 70.4905C113.002 70.4905 113.637 70.8312 113.825 71.6772H110.829ZM122.756 69.1275C121.898 69.1275 121.275 69.4447 120.852 69.9852V69.292H119.336V77.517H120.852V74.4737C121.275 75.0142 121.898 75.3315 122.756 75.3315C124.33 75.3315 125.623 73.9802 125.623 72.2295C125.623 70.4787 124.33 69.1275 122.756 69.1275ZM122.474 73.8862C121.545 73.8862 120.852 73.2165 120.852 72.2295C120.852 71.2425 121.545 70.5727 122.474 70.5727C123.414 70.5727 124.107 71.2425 124.107 72.2295C124.107 73.2165 123.414 73.8862 122.474 73.8862ZM128.207 70.3025V69.292H126.692V75.167H128.207V72.3587C128.207 71.125 129.206 70.7725 129.993 70.8665V69.1745C129.253 69.1745 128.513 69.5035 128.207 70.3025ZM133.458 75.3315C135.186 75.3315 136.572 73.9802 136.572 72.2295C136.572 70.4787 135.186 69.1275 133.458 69.1275C131.731 69.1275 130.356 70.4787 130.356 72.2295C130.356 73.9802 131.731 75.3315 133.458 75.3315ZM133.458 73.851C132.565 73.851 131.872 73.1812 131.872 72.2295C131.872 71.2777 132.565 70.608 133.458 70.608C134.363 70.608 135.056 71.2777 135.056 72.2295C135.056 73.1812 134.363 73.851 133.458 73.851ZM141.058 69.1275C140.2 69.1275 139.577 69.4447 139.154 69.9852V69.292H137.638V77.517H139.154V74.4737C139.577 75.0142 140.2 75.3315 141.058 75.3315C142.632 75.3315 143.925 73.9802 143.925 72.2295C143.925 70.4787 142.632 69.1275 141.058 69.1275ZM140.776 73.8862C139.847 73.8862 139.154 73.2165 139.154 72.2295C139.154 71.2425 139.847 70.5727 140.776 70.5727C141.716 70.5727 142.409 71.2425 142.409 72.2295C142.409 73.2165 141.716 73.8862 140.776 73.8862ZM146.274 72.8522H150.704C150.739 72.6525 150.763 72.4527 150.763 72.2295C150.763 70.5022 149.529 69.1275 147.79 69.1275C145.945 69.1275 144.688 70.4787 144.688 72.2295C144.688 73.9802 145.934 75.3315 147.908 75.3315C149.036 75.3315 149.917 74.8732 150.469 74.0742L149.247 73.3692C148.989 73.71 148.519 73.9567 147.931 73.9567C147.132 73.9567 146.486 73.6277 146.274 72.8522ZM146.251 71.6772C146.427 70.9252 146.979 70.4905 147.79 70.4905C148.425 70.4905 149.059 70.8312 149.247 71.6772H146.251ZM153.337 70.3025V69.292H151.821V75.167H153.337V72.3587C153.337 71.125 154.335 70.7725 155.123 70.8665V69.1745C154.382 69.1745 153.642 69.5035 153.337 70.3025ZM159.53 70.749V69.292H158.203V67.647L156.687 68.1052V69.292H155.665V70.749H156.687V73.193C156.687 74.7792 157.404 75.402 159.53 75.167V73.7922C158.661 73.8392 158.203 73.8275 158.203 73.193V70.749H159.53ZM164.556 69.292L163.251 73.24L161.724 69.292H160.067L162.476 74.979C162.194 75.7662 161.771 76.1187 160.937 76.107V77.517C162.429 77.5992 163.428 76.859 164.039 75.167L166.177 69.292H164.556Z" fill="#656565"/>
<path d="M57.1434 76.5815L58.5143 75.2107L55.283 71.9795L65.2705 71.9795L65.2705 70.0211L55.283 70.0211L58.5143 66.7899L57.1434 65.419L51.5622 71.0003L57.1434 76.5815Z" fill="#87BEFF"/>
<path d="M31 192H487V309.624C487 316.459 481.459 322 474.624 322H43.3757C36.5408 322 31 316.459 31 309.624V192Z" fill="#F9F9FB"/>
<path d="M56.8654 252.275C56.1501 252.516 55.4693 252.636 54.8229 252.636C54.1803 252.636 53.6085 252.489 53.1074 252.195C52.6102 251.896 52.222 251.495 51.9427 250.99C51.6635 250.481 51.5239 249.903 51.5239 249.257C51.5239 248.286 51.8395 247.479 52.4706 246.836C53.1055 246.193 53.8705 245.872 54.7655 245.872C55.4272 245.872 56.1272 245.996 56.8654 246.245V247.272C56.1195 246.932 55.4521 246.761 54.863 246.761C54.4729 246.761 54.1057 246.859 53.7615 247.054C53.4172 247.245 53.1514 247.545 52.964 247.955C52.7766 248.364 52.6829 248.785 52.6829 249.217C52.6829 249.794 52.8626 250.345 53.2222 250.869C53.5855 251.393 54.1535 251.655 54.9261 251.655C55.1595 251.655 55.389 251.64 55.6146 251.609C55.8403 251.575 56.2572 251.454 56.8654 251.248V252.275ZM61.1683 252.636C60.2504 252.636 59.516 252.317 58.9652 251.678C58.4144 251.036 58.139 250.227 58.139 249.251C58.139 248.276 58.4144 247.469 58.9652 246.83C59.516 246.191 60.2504 245.872 61.1683 245.872C62.0825 245.872 62.8149 246.191 63.3657 246.83C63.9165 247.469 64.1919 248.276 64.1919 249.251C64.1919 250.227 63.9165 251.036 63.3657 251.678C62.8149 252.317 62.0825 252.636 61.1683 252.636ZM61.1683 251.747C61.7382 251.747 62.1915 251.525 62.5281 251.082C62.8647 250.638 63.033 250.028 63.033 249.251C63.033 248.479 62.8647 247.871 62.5281 247.427C62.1915 246.983 61.7382 246.761 61.1683 246.761C60.5946 246.761 60.1394 246.983 59.8029 247.427C59.4663 247.871 59.298 248.479 59.298 249.251C59.298 250.028 59.4663 250.638 59.8029 251.082C60.1394 251.525 60.5946 251.747 61.1683 251.747ZM65.5861 252.458V246.05H66.6532V247.45C66.9592 246.956 67.3283 246.57 67.7605 246.291C68.1927 246.012 68.6249 245.872 69.0571 245.872C69.4358 245.872 69.78 245.973 70.0898 246.176C70.3997 246.375 70.6158 246.637 70.7382 246.962C70.8644 247.287 70.9275 247.926 70.9275 248.878V252.458H69.8604V248.746C69.8604 248.131 69.8298 247.725 69.7686 247.53C69.7112 247.331 69.6022 247.169 69.4415 247.042C69.2847 246.916 69.1126 246.853 68.9252 246.853C68.5503 246.853 68.1468 247.031 67.7146 247.387C67.2862 247.742 66.9324 248.188 66.6532 248.724V252.458H65.5861ZM72.7175 252.12V250.99C73.1459 251.269 73.5992 251.466 74.0773 251.581C74.5554 251.692 74.9608 251.747 75.2936 251.747C75.8329 251.747 76.2211 251.661 76.4583 251.489C76.6954 251.313 76.814 251.095 76.814 250.835C76.814 250.663 76.7585 250.515 76.6476 250.393C76.5367 250.271 76.2613 250.12 75.8214 249.94L75.4542 249.791L74.7141 249.498C73.9185 249.188 73.4175 248.901 73.2109 248.637C73.0006 248.377 72.8954 248.06 72.8954 247.685C72.8954 247.157 73.0981 246.723 73.5035 246.383C73.9128 246.042 74.5745 245.872 75.4886 245.872C76.1733 245.872 76.8216 245.972 77.4336 246.17V247.14C76.7298 246.888 76.0681 246.761 75.4485 246.761C74.9972 246.761 74.6434 246.842 74.3871 247.002C74.1346 247.159 74.0084 247.356 74.0084 247.593C74.0084 247.823 74.1193 248.006 74.3412 248.144C74.5592 248.282 74.9149 248.44 75.4083 248.62L76.1312 248.884C76.7929 249.125 77.2576 249.387 77.5254 249.67C77.7931 249.953 77.927 250.307 77.927 250.732C77.927 251.286 77.7128 251.743 77.2844 252.103C76.8599 252.458 76.179 252.636 75.2419 252.636C74.4234 252.636 73.5819 252.464 72.7175 252.12ZM85.0585 252.2C84.5574 252.411 84.1941 252.535 83.9684 252.573C83.7427 252.615 83.5247 252.636 83.3143 252.636C82.8668 252.636 82.4576 252.55 82.0865 252.378C81.7155 252.206 81.4344 251.952 81.2432 251.615C81.0557 251.279 80.962 250.758 80.962 250.055V247.473H79.3613V246.583H80.962V244.002H82.0292V246.583H84.8806V247.473H82.0292V250.037C82.0292 250.554 82.0904 250.919 82.2128 251.133C82.3352 251.344 82.4977 251.498 82.7004 251.598C82.907 251.697 83.1499 251.747 83.4291 251.747C83.9454 251.747 84.4886 251.585 85.0585 251.259V252.2ZM143.212 252.458V246.05H144.279V247.45C144.585 246.956 144.954 246.57 145.386 246.291C145.818 246.012 146.251 245.872 146.683 245.872C147.062 245.872 147.406 245.973 147.716 246.176C148.025 246.375 148.241 246.637 148.364 246.962C148.49 247.287 148.553 247.926 148.553 248.878V252.458H147.486V248.746C147.486 248.131 147.455 247.725 147.394 247.53C147.337 247.331 147.228 247.169 147.067 247.042C146.91 246.916 146.738 246.853 146.551 246.853C146.176 246.853 145.773 247.031 145.34 247.387C144.912 247.742 144.558 248.188 144.279 248.724V252.458H143.212ZM155.599 252.034C154.746 252.439 153.939 252.642 153.177 252.642C152.6 252.642 152.084 252.499 151.628 252.212C151.173 251.925 150.808 251.516 150.533 250.984C150.261 250.449 150.125 249.877 150.125 249.269C150.125 248.683 150.255 248.121 150.515 247.582C150.775 247.042 151.139 246.624 151.605 246.325C152.072 246.023 152.592 245.872 153.166 245.872C153.927 245.872 154.537 246.144 154.996 246.687C155.459 247.23 155.69 248.068 155.69 249.2V249.429H151.273C151.273 249.873 151.365 250.278 151.548 250.646C151.736 251.013 151.98 251.288 152.282 251.472C152.585 251.655 152.929 251.747 153.315 251.747C154.004 251.747 154.765 251.518 155.599 251.059V252.034ZM151.336 248.632H154.531V248.477C154.531 247.953 154.403 247.536 154.147 247.226C153.891 246.916 153.549 246.761 153.12 246.761C152.688 246.761 152.313 246.92 151.996 247.238C151.682 247.551 151.462 248.016 151.336 248.632ZM157.595 252.458L156.551 246.05H157.544L158.152 249.951L158.312 250.858L158.467 249.951L159.489 246.05H160.447L161.6 249.951L161.801 250.858L161.933 249.951L162.547 246.05H163.367L162.328 252.458H161.33L160.102 248.333L159.907 247.427H159.879L159.701 248.328L158.634 252.458H157.595Z" fill="#1EA4A9"/>
<path d="M95.3053 252.458V247.473H93.8824V246.583H95.3053V246.285C95.3053 245.44 95.4009 244.814 95.5922 244.409C95.7834 244.004 96.0779 243.671 96.4757 243.411C96.8773 243.151 97.4071 243.021 98.0649 243.021C98.5622 243.021 99.0671 243.072 99.5796 243.176V244.191C99.025 244.007 98.5335 243.916 98.1051 243.916C97.7647 243.916 97.4644 243.979 97.2043 244.105C96.9443 244.231 96.7396 244.438 96.5905 244.725C96.4451 245.008 96.3724 245.49 96.3724 246.17V246.583H98.9141V247.473H96.3724V252.458H95.3053ZM102.666 252.458V246.939H100.888V246.05H103.733V251.569H105.518V252.458H102.666ZM102.488 243.738C102.488 243.497 102.571 243.317 102.735 243.198C102.9 243.08 103.054 243.021 103.2 243.021C103.349 243.021 103.506 243.08 103.67 243.198C103.835 243.317 103.917 243.497 103.917 243.738C103.917 243.975 103.835 244.153 103.67 244.271C103.506 244.39 103.349 244.449 103.2 244.449C103.054 244.449 102.9 244.39 102.735 244.271C102.571 244.153 102.488 243.975 102.488 243.738ZM109.649 252.458V244.094H107.732V243.198H110.716V251.569H112.718V252.458H109.649ZM120.314 252.034C119.461 252.439 118.654 252.642 117.893 252.642C117.316 252.642 116.799 252.499 116.344 252.212C115.889 251.925 115.524 251.516 115.248 250.984C114.977 250.449 114.841 249.877 114.841 249.269C114.841 248.683 114.971 248.121 115.231 247.582C115.491 247.042 115.854 246.624 116.321 246.325C116.788 246.023 117.308 245.872 117.882 245.872C118.643 245.872 119.253 246.144 119.712 246.687C120.175 247.23 120.406 248.068 120.406 249.2V249.429H115.988C115.988 249.873 116.08 250.278 116.264 250.646C116.451 251.013 116.696 251.288 116.998 251.472C117.3 251.655 117.644 251.747 118.031 251.747C118.719 251.747 119.48 251.518 120.314 251.059V252.034ZM116.051 248.632H119.247V248.477C119.247 247.953 119.119 247.536 118.863 247.226C118.606 246.916 118.264 246.761 117.836 246.761C117.403 246.761 117.029 246.92 116.711 247.238C116.398 247.551 116.178 248.016 116.051 248.632Z" fill="#5F9315"/>
<path d="M134.847 247.92V248.81H128.616V247.92H134.847ZM134.847 249.923V250.812H128.616V249.923H134.847Z" fill="#C82864"/>
<path d="M171.852 252.458H170.739L173.482 243.554H174.658L177.418 252.458H176.196L175.587 250.502H172.455L171.852 252.458ZM172.73 249.613H175.329L174.256 246.234L174.004 245.339L173.78 246.234L172.73 249.613ZM183.849 252.355C183.184 252.604 182.587 252.728 182.059 252.728C181.363 252.728 180.722 252.543 180.137 252.172C179.552 251.797 179.097 251.242 178.772 250.508C178.446 249.77 178.284 248.936 178.284 248.006C178.284 247.085 178.445 246.256 178.766 245.522C179.087 244.788 179.54 244.231 180.126 243.853C180.711 243.474 181.355 243.285 182.059 243.285C182.587 243.285 183.184 243.409 183.849 243.657V244.713C183.233 244.357 182.621 244.18 182.013 244.18C181.554 244.18 181.133 244.336 180.751 244.65C180.372 244.964 180.066 245.425 179.833 246.033C179.6 246.637 179.483 247.295 179.483 248.006C179.483 248.729 179.604 249.397 179.844 250.009C180.085 250.621 180.393 251.08 180.768 251.386C181.143 251.688 181.558 251.839 182.013 251.839C182.618 251.839 183.229 251.661 183.849 251.305V252.355ZM185.565 252.269V251.179C186.483 251.615 187.316 251.833 188.066 251.833C188.38 251.833 188.68 251.774 188.967 251.655C189.254 251.533 189.47 251.359 189.615 251.133C189.764 250.908 189.839 250.663 189.839 250.399C189.839 250.089 189.738 249.8 189.535 249.532C189.332 249.261 188.951 248.963 188.393 248.637L187.808 248.299L187.217 247.96C186.177 247.345 185.656 246.58 185.656 245.666C185.656 244.996 185.888 244.434 186.351 243.979C186.817 243.52 187.544 243.29 188.531 243.29C189.166 243.29 189.78 243.382 190.372 243.566V244.558C189.718 244.306 189.082 244.18 188.462 244.18C187.969 244.18 187.569 244.31 187.263 244.57C186.961 244.83 186.81 245.143 186.81 245.511C186.81 245.874 186.926 246.176 187.16 246.417C187.393 246.658 187.691 246.88 188.055 247.083L188.502 247.352L189.059 247.691L189.529 247.966C190.504 248.563 190.992 249.313 190.992 250.215C190.992 250.904 190.742 251.495 190.24 251.988C189.739 252.481 188.936 252.728 187.831 252.728C187.479 252.728 187.142 252.698 186.821 252.636C186.504 252.579 186.085 252.457 185.565 252.269ZM195.243 252.728C194.987 252.728 194.767 252.636 194.584 252.453C194.4 252.269 194.308 252.049 194.308 251.793C194.308 251.533 194.4 251.313 194.584 251.133C194.771 250.95 194.991 250.858 195.243 250.858C195.496 250.858 195.714 250.95 195.897 251.133C196.085 251.313 196.179 251.533 196.179 251.793C196.179 252.049 196.087 252.269 195.903 252.453C195.72 252.636 195.5 252.728 195.243 252.728ZM202.3 252.728C201.291 252.728 200.518 252.304 199.982 251.454C199.451 250.602 199.185 249.452 199.185 248.006C199.185 246.564 199.451 245.419 199.982 244.57C200.518 243.717 201.291 243.29 202.3 243.29C203.314 243.29 204.087 243.717 204.618 244.57C205.15 245.419 205.416 246.564 205.416 248.006C205.416 249.452 205.15 250.602 204.618 251.454C204.087 252.304 203.314 252.728 202.3 252.728ZM202.3 251.833C202.859 251.833 203.323 251.518 203.694 250.886C204.069 250.252 204.257 249.292 204.257 248.006C204.257 246.721 204.069 245.763 203.694 245.132C203.323 244.497 202.859 244.18 202.3 244.18C201.742 244.18 201.275 244.497 200.9 245.132C200.529 245.763 200.344 246.721 200.344 248.006C200.344 249.292 200.529 250.252 200.9 250.886C201.275 251.518 201.742 251.833 202.3 251.833ZM207.711 247.49C208.04 246.955 208.432 246.551 208.887 246.279C209.342 246.008 209.761 245.872 210.143 245.872C210.679 245.872 211.161 246.103 211.589 246.566C212.017 247.029 212.232 247.731 212.232 248.672C212.232 249.414 212.088 250.078 211.801 250.663C211.518 251.244 211.14 251.705 210.665 252.045C210.191 252.382 209.604 252.55 208.904 252.55C208.705 252.55 208.399 252.529 207.986 252.487C207.925 252.48 207.833 252.47 207.711 252.458H206.643V243.198H207.711V247.49ZM207.711 248.758V251.506C208.097 251.606 208.453 251.655 208.778 251.655C209.424 251.655 209.967 251.403 210.407 250.898C210.851 250.389 211.073 249.695 211.073 248.815C211.073 248.177 210.952 247.697 210.711 247.375C210.47 247.054 210.197 246.893 209.891 246.893C209.558 246.893 209.191 247.062 208.789 247.398C208.391 247.735 208.032 248.188 207.711 248.758ZM213.878 254.971V253.973C214.475 254.149 214.978 254.237 215.387 254.237C215.743 254.237 216.045 254.174 216.294 254.048C216.542 253.925 216.735 253.717 216.873 253.422C217.015 253.128 217.085 252.615 217.085 251.885V246.939H214.366V246.05H218.152V251.684C218.152 252.77 218.024 253.524 217.768 253.944C217.512 254.369 217.202 254.673 216.839 254.857C216.475 255.04 215.978 255.132 215.347 255.132C214.892 255.132 214.402 255.079 213.878 254.971ZM216.907 243.738C216.907 243.497 216.988 243.317 217.148 243.198C217.313 243.08 217.47 243.021 217.619 243.021C217.768 243.021 217.923 243.08 218.084 243.198C218.248 243.317 218.33 243.497 218.33 243.738C218.33 243.975 218.248 244.153 218.084 244.271C217.923 244.39 217.768 244.449 217.619 244.449C217.47 244.449 217.313 244.39 217.148 244.271C216.988 244.153 216.907 243.975 216.907 243.738ZM226.167 252.034C225.315 252.439 224.507 252.642 223.746 252.642C223.169 252.642 222.652 252.499 222.197 252.212C221.742 251.925 221.377 251.516 221.101 250.984C220.83 250.449 220.694 249.877 220.694 249.269C220.694 248.683 220.824 248.121 221.084 247.582C221.344 247.042 221.708 246.624 222.174 246.325C222.641 246.023 223.161 245.872 223.735 245.872C224.496 245.872 225.106 246.144 225.565 246.687C226.028 247.23 226.259 248.068 226.259 249.2V249.429H221.842C221.842 249.873 221.933 250.278 222.117 250.646C222.304 251.013 222.549 251.288 222.851 251.472C223.153 251.655 223.498 251.747 223.884 251.747C224.573 251.747 225.334 251.518 226.167 251.059V252.034ZM221.905 248.632H225.1V248.477C225.1 247.953 224.972 247.536 224.716 247.226C224.46 246.916 224.117 246.761 223.689 246.761C223.257 246.761 222.882 246.92 222.564 247.238C222.251 247.551 222.031 248.016 221.905 248.632ZM233.287 252.275C232.572 252.516 231.891 252.636 231.245 252.636C230.602 252.636 230.031 252.489 229.53 252.195C229.032 251.896 228.644 251.495 228.365 250.99C228.086 250.481 227.946 249.903 227.946 249.257C227.946 248.286 228.262 247.479 228.893 246.836C229.528 246.193 230.293 245.872 231.188 245.872C231.849 245.872 232.549 245.996 233.287 246.245V247.272C232.542 246.932 231.874 246.761 231.285 246.761C230.895 246.761 230.528 246.859 230.184 247.054C229.839 247.245 229.574 247.545 229.386 247.955C229.199 248.364 229.105 248.785 229.105 249.217C229.105 249.794 229.285 250.345 229.644 250.869C230.008 251.393 230.576 251.655 231.348 251.655C231.582 251.655 231.811 251.64 232.037 251.609C232.262 251.575 232.679 251.454 233.287 251.248V252.275ZM240.31 252.2C239.809 252.411 239.446 252.535 239.22 252.573C238.994 252.615 238.776 252.636 238.566 252.636C238.118 252.636 237.709 252.55 237.338 252.378C236.967 252.206 236.686 251.952 236.495 251.615C236.307 251.279 236.214 250.758 236.214 250.055V247.473H234.613V246.583H236.214V244.002H237.281V246.583H240.132V247.473H237.281V250.037C237.281 250.554 237.342 250.919 237.464 251.133C237.587 251.344 237.749 251.498 237.952 251.598C238.158 251.697 238.401 251.747 238.681 251.747C239.197 251.747 239.74 251.585 240.31 251.259V252.2ZM247.269 254.593C246.21 254.528 245.317 254.227 244.59 253.692C243.863 253.16 243.282 252.441 242.846 251.535C242.414 250.628 242.198 249.72 242.198 248.81C242.198 247.899 242.414 246.991 242.846 246.084C243.282 245.178 243.863 244.459 244.59 243.927C245.317 243.392 246.21 243.089 247.269 243.021V243.916C246.47 243.988 245.781 244.258 245.204 244.725C244.63 245.187 244.179 245.778 243.85 246.497C243.521 247.217 243.356 247.987 243.356 248.81C243.356 249.632 243.521 250.403 243.85 251.122C244.179 251.841 244.63 252.432 245.204 252.895C245.781 253.357 246.47 253.627 247.269 253.703V254.593ZM347.873 243.021C348.932 243.089 349.826 243.392 350.552 243.927C351.279 244.459 351.858 245.178 352.291 246.084C352.727 246.991 352.945 247.899 352.945 248.81C352.945 249.72 352.727 250.628 352.291 251.535C351.858 252.441 351.279 253.16 350.552 253.692C349.826 254.227 348.932 254.528 347.873 254.593V253.703C348.672 253.627 349.359 253.357 349.933 252.895C350.51 252.432 350.963 251.841 351.292 251.122C351.625 250.403 351.792 249.632 351.792 248.81C351.792 247.987 351.625 247.217 351.292 246.497C350.963 245.778 350.51 245.187 349.933 244.725C349.359 244.258 348.672 243.988 347.873 243.916V243.021Z" fill="#5A5A5A"/>
<path d="M252.094 246.761H251.326L250.723 243.198H252.68L252.094 246.761ZM257.614 252.458V247.473H256.191V246.583H257.614V246.285C257.614 245.44 257.709 244.814 257.901 244.409C258.092 244.004 258.386 243.671 258.784 243.411C259.186 243.151 259.715 243.021 260.373 243.021C260.871 243.021 261.375 243.072 261.888 243.176V244.191C261.333 244.007 260.842 243.916 260.413 243.916C260.073 243.916 259.773 243.979 259.513 244.105C259.253 244.231 259.048 244.438 258.899 244.725C258.753 245.008 258.681 245.49 258.681 246.17V246.583H261.222V247.473H258.681V252.458H257.614ZM264.975 252.458V246.939H263.196V246.05H266.042V251.569H267.826V252.458H264.975ZM264.797 243.738C264.797 243.497 264.879 243.317 265.043 243.198C265.208 243.08 265.363 243.021 265.508 243.021C265.657 243.021 265.814 243.08 265.979 243.198C266.143 243.317 266.225 243.497 266.225 243.738C266.225 243.975 266.143 244.153 265.979 244.271C265.814 244.39 265.657 244.449 265.508 244.449C265.363 244.449 265.208 244.39 265.043 244.271C264.879 244.153 264.797 243.975 264.797 243.738ZM271.957 252.458V244.094H270.041V243.198H273.024V251.569H275.026V252.458H271.957ZM282.623 252.034C281.77 252.439 280.963 252.642 280.201 252.642C279.624 252.642 279.108 252.499 278.652 252.212C278.197 251.925 277.832 251.516 277.557 250.984C277.285 250.449 277.149 249.877 277.149 249.269C277.149 248.683 277.279 248.121 277.539 247.582C277.799 247.042 278.163 246.624 278.629 246.325C279.096 246.023 279.616 245.872 280.19 245.872C280.951 245.872 281.561 246.144 282.02 246.687C282.483 247.23 282.714 248.068 282.714 249.2V249.429H278.297C278.297 249.873 278.388 250.278 278.572 250.646C278.759 251.013 279.004 251.288 279.306 251.472C279.609 251.655 279.953 251.747 280.339 251.747C281.028 251.747 281.789 251.518 282.623 251.059V252.034ZM278.36 248.632H281.555V248.477C281.555 247.953 281.427 247.536 281.171 247.226C280.915 246.916 280.572 246.761 280.144 246.761C279.712 246.761 279.337 246.92 279.02 247.238C278.706 247.551 278.486 248.016 278.36 248.632ZM289.702 252.355C289.037 252.604 288.44 252.728 287.912 252.728C287.216 252.728 286.576 252.543 285.99 252.172C285.405 251.797 284.95 251.242 284.625 250.508C284.3 249.77 284.137 248.936 284.137 248.006C284.137 247.085 284.298 246.256 284.619 245.522C284.94 244.788 285.394 244.231 285.979 243.853C286.564 243.474 287.209 243.285 287.912 243.285C288.44 243.285 289.037 243.409 289.702 243.657V244.713C289.087 244.357 288.475 244.18 287.866 244.18C287.407 244.18 286.987 244.336 286.604 244.65C286.226 244.964 285.92 245.425 285.686 246.033C285.453 246.637 285.336 247.295 285.336 248.006C285.336 248.729 285.457 249.397 285.698 250.009C285.939 250.621 286.247 251.08 286.621 251.386C286.996 251.688 287.411 251.839 287.866 251.839C288.471 251.839 289.083 251.661 289.702 251.305V252.355ZM294.046 252.636C293.128 252.636 292.393 252.317 291.842 251.678C291.292 251.036 291.016 250.227 291.016 249.251C291.016 248.276 291.292 247.469 291.842 246.83C292.393 246.191 293.128 245.872 294.046 245.872C294.96 245.872 295.692 246.191 296.243 246.83C296.794 247.469 297.069 248.276 297.069 249.251C297.069 250.227 296.794 251.036 296.243 251.678C295.692 252.317 294.96 252.636 294.046 252.636ZM294.046 251.747C294.615 251.747 295.069 251.525 295.405 251.082C295.742 250.638 295.91 250.028 295.91 249.251C295.91 248.479 295.742 247.871 295.405 247.427C295.069 246.983 294.615 246.761 294.046 246.761C293.472 246.761 293.017 246.983 292.68 247.427C292.343 247.871 292.175 248.479 292.175 249.251C292.175 250.028 292.343 250.638 292.68 251.082C293.017 251.525 293.472 251.747 294.046 251.747ZM298.463 252.458V246.05H299.53V247.45C299.836 246.956 300.205 246.57 300.638 246.291C301.07 246.012 301.502 245.872 301.934 245.872C302.313 245.872 302.657 245.973 302.967 246.176C303.277 246.375 303.493 246.637 303.615 246.962C303.742 247.287 303.805 247.926 303.805 248.878V252.458H302.738V248.746C302.738 248.131 302.707 247.725 302.646 247.53C302.588 247.331 302.479 247.169 302.319 247.042C302.162 246.916 301.99 246.853 301.802 246.853C301.428 246.853 301.024 247.031 300.592 247.387C300.163 247.742 299.81 248.188 299.53 248.724V252.458H298.463ZM310.879 252.2C310.378 252.411 310.014 252.535 309.789 252.573C309.563 252.615 309.345 252.636 309.135 252.636C308.687 252.636 308.278 252.55 307.907 252.378C307.536 252.206 307.255 251.952 307.063 251.615C306.876 251.279 306.782 250.758 306.782 250.055V247.473H305.182V246.583H306.782V244.002H307.849V246.583H310.701V247.473H307.849V250.037C307.849 250.554 307.911 250.919 308.033 251.133C308.155 251.344 308.318 251.498 308.521 251.598C308.727 251.697 308.97 251.747 309.249 251.747C309.766 251.747 310.309 251.585 310.879 251.259V252.2ZM317.907 252.034C317.054 252.439 316.247 252.642 315.486 252.642C314.908 252.642 314.392 252.499 313.937 252.212C313.482 251.925 313.116 251.516 312.841 250.984C312.569 250.449 312.434 249.877 312.434 249.269C312.434 248.683 312.564 248.121 312.824 247.582C313.084 247.042 313.447 246.624 313.914 246.325C314.38 246.023 314.901 245.872 315.474 245.872C316.236 245.872 316.846 246.144 317.305 246.687C317.767 247.23 317.999 248.068 317.999 249.2V249.429H313.581C313.581 249.873 313.673 250.278 313.856 250.646C314.044 251.013 314.289 251.288 314.591 251.472C314.893 251.655 315.237 251.747 315.624 251.747C316.312 251.747 317.073 251.518 317.907 251.059V252.034ZM313.644 248.632H316.84V248.477C316.84 247.953 316.712 247.536 316.455 247.226C316.199 246.916 315.857 246.761 315.428 246.761C314.996 246.761 314.621 246.92 314.304 247.238C313.99 247.551 313.77 248.016 313.644 248.632ZM319.634 252.458V246.05H320.701V247.45C321.007 246.956 321.376 246.57 321.808 246.291C322.241 246.012 322.673 245.872 323.105 245.872C323.484 245.872 323.828 245.973 324.138 246.176C324.448 246.375 324.664 246.637 324.786 246.962C324.912 247.287 324.975 247.926 324.975 248.878V252.458H323.908V248.746C323.908 248.131 323.878 247.725 323.816 247.53C323.759 247.331 323.65 247.169 323.489 247.042C323.333 246.916 323.16 246.853 322.973 246.853C322.598 246.853 322.195 247.031 321.762 247.387C321.334 247.742 320.98 248.188 320.701 248.724V252.458H319.634ZM332.049 252.2C331.548 252.411 331.185 252.535 330.959 252.573C330.734 252.615 330.516 252.636 330.305 252.636C329.858 252.636 329.449 252.55 329.078 252.378C328.707 252.206 328.425 251.952 328.234 251.615C328.047 251.279 327.953 250.758 327.953 250.055V247.473H326.352V246.583H327.953V244.002H329.02V246.583H331.872V247.473H329.02V250.037C329.02 250.554 329.081 250.919 329.204 251.133C329.326 251.344 329.489 251.498 329.691 251.598C329.898 251.697 330.141 251.747 330.42 251.747C330.936 251.747 331.48 251.585 332.049 251.259V252.2ZM333.822 252.12V250.99C334.251 251.269 334.704 251.466 335.182 251.581C335.66 251.692 336.066 251.747 336.398 251.747C336.938 251.747 337.326 251.661 337.563 251.489C337.8 251.313 337.919 251.095 337.919 250.835C337.919 250.663 337.863 250.515 337.752 250.393C337.641 250.271 337.366 250.12 336.926 249.94L336.559 249.791L335.819 249.498C335.023 249.188 334.522 248.901 334.316 248.637C334.105 248.377 334 248.06 334 247.685C334 247.157 334.203 246.723 334.608 246.383C335.018 246.042 335.679 245.872 336.593 245.872C337.278 245.872 337.926 245.972 338.538 246.17V247.14C337.835 246.888 337.173 246.761 336.553 246.761C336.102 246.761 335.748 246.842 335.492 247.002C335.239 247.159 335.113 247.356 335.113 247.593C335.113 247.823 335.224 248.006 335.446 248.144C335.664 248.282 336.02 248.44 336.513 248.62L337.236 248.884C337.898 249.125 338.362 249.387 338.63 249.67C338.898 249.953 339.032 250.307 339.032 250.732C339.032 251.286 338.818 251.743 338.389 252.103C337.965 252.458 337.284 252.636 336.347 252.636C335.528 252.636 334.687 252.464 333.822 252.12ZM343.834 246.761H343.065L342.463 243.198H344.419L343.834 246.761Z" fill="#E38800"/>
<path d="M56.8654 295.357C56.1501 295.598 55.4693 295.719 54.8229 295.719C54.1803 295.719 53.6085 295.572 53.1074 295.277C52.6102 294.979 52.222 294.577 51.9427 294.072C51.6635 293.564 51.5239 292.986 51.5239 292.34C51.5239 291.368 51.8395 290.561 52.4706 289.918C53.1055 289.276 53.8705 288.955 54.7655 288.955C55.4272 288.955 56.1272 289.079 56.8654 289.328V290.354C56.1195 290.014 55.4521 289.844 54.863 289.844C54.4729 289.844 54.1057 289.941 53.7615 290.136C53.4172 290.328 53.1514 290.628 52.964 291.037C52.7766 291.446 52.6829 291.867 52.6829 292.299C52.6829 292.877 52.8626 293.428 53.2222 293.952C53.5855 294.476 54.1535 294.738 54.9261 294.738C55.1595 294.738 55.389 294.722 55.6146 294.692C55.8403 294.657 56.2572 294.537 56.8654 294.33V295.357ZM61.1683 295.719C60.2504 295.719 59.516 295.399 58.9652 294.761C58.4144 294.118 58.139 293.309 58.139 292.334C58.139 291.359 58.4144 290.551 58.9652 289.913C59.516 289.274 60.2504 288.955 61.1683 288.955C62.0825 288.955 62.8149 289.274 63.3657 289.913C63.9165 290.551 64.1919 291.359 64.1919 292.334C64.1919 293.309 63.9165 294.118 63.3657 294.761C62.8149 295.399 62.0825 295.719 61.1683 295.719ZM61.1683 294.83C61.7382 294.83 62.1915 294.608 62.5281 294.164C62.8647 293.72 63.033 293.11 63.033 292.334C63.033 291.561 62.8647 290.953 62.5281 290.509C62.1915 290.066 61.7382 289.844 61.1683 289.844C60.5946 289.844 60.1394 290.066 59.8029 290.509C59.4663 290.953 59.298 291.561 59.298 292.334C59.298 293.11 59.4663 293.72 59.8029 294.164C60.1394 294.608 60.5946 294.83 61.1683 294.83ZM65.5861 295.541V289.132H66.6532V290.532C66.9592 290.039 67.3283 289.653 67.7605 289.373C68.1927 289.094 68.6249 288.955 69.0571 288.955C69.4358 288.955 69.78 289.056 70.0898 289.259C70.3997 289.458 70.6158 289.72 70.7382 290.045C70.8644 290.37 70.9275 291.009 70.9275 291.961V295.541H69.8604V291.829C69.8604 291.213 69.8298 290.808 69.7686 290.613C69.7112 290.414 69.6022 290.251 69.4415 290.125C69.2847 289.999 69.1126 289.936 68.9252 289.936C68.5503 289.936 68.1468 290.114 67.7146 290.469C67.2862 290.825 66.9324 291.271 66.6532 291.806V295.541H65.5861ZM72.7175 295.203V294.072C73.1459 294.351 73.5992 294.548 74.0773 294.663C74.5554 294.774 74.9608 294.83 75.2936 294.83C75.8329 294.83 76.2211 294.744 76.4583 294.571C76.6954 294.395 76.814 294.177 76.814 293.917C76.814 293.745 76.7585 293.598 76.6476 293.476C76.5367 293.353 76.2613 293.202 75.8214 293.022L75.4542 292.873L74.7141 292.581C73.9185 292.271 73.4175 291.984 73.2109 291.72C73.0006 291.46 72.8954 291.142 72.8954 290.768C72.8954 290.24 73.0981 289.806 73.5035 289.465C73.9128 289.125 74.5745 288.955 75.4886 288.955C76.1733 288.955 76.8216 289.054 77.4336 289.253V290.223C76.7298 289.97 76.0681 289.844 75.4485 289.844C74.9972 289.844 74.6434 289.924 74.3871 290.085C74.1346 290.242 74.0084 290.439 74.0084 290.676C74.0084 290.905 74.1193 291.089 74.3412 291.227C74.5592 291.364 74.9149 291.523 75.4083 291.703L76.1312 291.967C76.7929 292.208 77.2576 292.47 77.5254 292.753C77.7931 293.036 77.927 293.39 77.927 293.814C77.927 294.369 77.7128 294.826 77.2844 295.185C76.8599 295.541 76.179 295.719 75.2419 295.719C74.4234 295.719 73.5819 295.547 72.7175 295.203ZM85.0585 295.283C84.5574 295.493 84.1941 295.618 83.9684 295.656C83.7427 295.698 83.5247 295.719 83.3143 295.719C82.8668 295.719 82.4576 295.633 82.0865 295.461C81.7155 295.289 81.4344 295.034 81.2432 294.698C81.0557 294.361 80.962 293.841 80.962 293.137V290.555H79.3613V289.666H80.962V287.084H82.0292V289.666H84.8806V290.555H82.0292V293.12C82.0292 293.636 82.0904 294.002 82.2128 294.216C82.3352 294.426 82.4977 294.581 82.7004 294.68C82.907 294.78 83.1499 294.83 83.4291 294.83C83.9454 294.83 84.4886 294.667 85.0585 294.342V295.283ZM143.212 295.541V289.132H144.279V290.532C144.585 290.039 144.954 289.653 145.386 289.373C145.818 289.094 146.251 288.955 146.683 288.955C147.062 288.955 147.406 289.056 147.716 289.259C148.025 289.458 148.241 289.72 148.364 290.045C148.49 290.37 148.553 291.009 148.553 291.961V295.541H147.486V291.829C147.486 291.213 147.455 290.808 147.394 290.613C147.337 290.414 147.228 290.251 147.067 290.125C146.91 289.999 146.738 289.936 146.551 289.936C146.176 289.936 145.773 290.114 145.34 290.469C144.912 290.825 144.558 291.271 144.279 291.806V295.541H143.212ZM155.599 295.116C154.746 295.522 153.939 295.725 153.177 295.725C152.6 295.725 152.084 295.581 151.628 295.294C151.173 295.007 150.808 294.598 150.533 294.067C150.261 293.531 150.125 292.959 150.125 292.351C150.125 291.766 150.255 291.204 150.515 290.664C150.775 290.125 151.139 289.706 151.605 289.408C152.072 289.106 152.592 288.955 153.166 288.955C153.927 288.955 154.537 289.226 154.996 289.769C155.459 290.312 155.69 291.15 155.69 292.282V292.512H151.273C151.273 292.955 151.365 293.361 151.548 293.728C151.736 294.095 151.98 294.371 152.282 294.554C152.585 294.738 152.929 294.83 153.315 294.83C154.004 294.83 154.765 294.6 155.599 294.141V295.116ZM151.336 291.714H154.531V291.559C154.531 291.035 154.403 290.618 154.147 290.309C153.891 289.999 153.549 289.844 153.12 289.844C152.688 289.844 152.313 290.003 151.996 290.32C151.682 290.634 151.462 291.098 151.336 291.714ZM157.595 295.541L156.551 289.132H157.544L158.152 293.034L158.312 293.94L158.467 293.034L159.489 289.132H160.447L161.6 293.034L161.801 293.94L161.933 293.034L162.547 289.132H163.367L162.328 295.541H161.33L160.102 291.416L159.907 290.509H159.879L159.701 291.41L158.634 295.541H157.595Z" fill="#1EA4A9"/>
<path d="M95.3053 295.541V290.555H93.8824V289.666H95.3053V289.368C95.3053 288.522 95.4009 287.897 95.5922 287.492C95.7834 287.086 96.0779 286.753 96.4757 286.493C96.8773 286.233 97.4071 286.103 98.0649 286.103C98.5622 286.103 99.0671 286.155 99.5796 286.258V287.274C99.025 287.09 98.5335 286.998 98.1051 286.998C97.7647 286.998 97.4644 287.061 97.2043 287.188C96.9443 287.314 96.7396 287.52 96.5905 287.807C96.4451 288.09 96.3724 288.572 96.3724 289.253V289.666H98.9141V290.555H96.3724V295.541H95.3053ZM102.666 295.541V290.022H100.888V289.132H103.733V294.652H105.518V295.541H102.666ZM102.488 286.82C102.488 286.579 102.571 286.4 102.735 286.281C102.9 286.162 103.054 286.103 103.2 286.103C103.349 286.103 103.506 286.162 103.67 286.281C103.835 286.4 103.917 286.579 103.917 286.82C103.917 287.057 103.835 287.235 103.67 287.354C103.506 287.472 103.349 287.532 103.2 287.532C103.054 287.532 102.9 287.472 102.735 287.354C102.571 287.235 102.488 287.057 102.488 286.82ZM109.649 295.541V287.176H107.732V286.281H110.716V294.652H112.718V295.541H109.649ZM120.314 295.116C119.461 295.522 118.654 295.725 117.893 295.725C117.316 295.725 116.799 295.581 116.344 295.294C115.889 295.007 115.524 294.598 115.248 294.067C114.977 293.531 114.841 292.959 114.841 292.351C114.841 291.766 114.971 291.204 115.231 290.664C115.491 290.125 115.854 289.706 116.321 289.408C116.788 289.106 117.308 288.955 117.882 288.955C118.643 288.955 119.253 289.226 119.712 289.769C120.175 290.312 120.406 291.15 120.406 292.282V292.512H115.988C115.988 292.955 116.08 293.361 116.264 293.728C116.451 294.095 116.696 294.371 116.998 294.554C117.3 294.738 117.644 294.83 118.031 294.83C118.719 294.83 119.48 294.6 120.314 294.141V295.116ZM116.051 291.714H119.247V291.559C119.247 291.035 119.119 290.618 118.863 290.309C118.606 289.999 118.264 289.844 117.836 289.844C117.403 289.844 117.029 290.003 116.711 290.32C116.398 290.634 116.178 291.098 116.051 291.714Z" fill="#5F9315"/>
<path d="M134.847 291.003V291.892H128.616V291.003H134.847ZM134.847 293.005V293.894H128.616V293.005H134.847Z" fill="#C82864"/>
<path d="M171.852 295.541H170.739L173.482 286.637H174.658L177.418 295.541H176.196L175.587 293.585H172.455L171.852 295.541ZM172.73 292.695H175.329L174.256 289.316L174.004 288.421L173.78 289.316L172.73 292.695ZM183.849 295.438C183.184 295.686 182.587 295.811 182.059 295.811C181.363 295.811 180.722 295.625 180.137 295.254C179.552 294.879 179.097 294.325 178.772 293.59C178.446 292.852 178.284 292.018 178.284 291.089C178.284 290.167 178.445 289.339 178.766 288.605C179.087 287.87 179.54 287.314 180.126 286.935C180.711 286.556 181.355 286.367 182.059 286.367C182.587 286.367 183.184 286.491 183.849 286.74V287.796C183.233 287.44 182.621 287.262 182.013 287.262C181.554 287.262 181.133 287.419 180.751 287.733C180.372 288.046 180.066 288.507 179.833 289.115C179.6 289.72 179.483 290.377 179.483 291.089C179.483 291.812 179.604 292.479 179.844 293.091C180.085 293.703 180.393 294.162 180.768 294.468C181.143 294.77 181.558 294.921 182.013 294.921C182.618 294.921 183.229 294.744 183.849 294.388V295.438ZM185.565 295.352V294.262C186.483 294.698 187.316 294.916 188.066 294.916C188.38 294.916 188.68 294.856 188.967 294.738C189.254 294.615 189.47 294.441 189.615 294.216C189.764 293.99 189.839 293.745 189.839 293.481C189.839 293.172 189.738 292.883 189.535 292.615C189.332 292.343 188.951 292.045 188.393 291.72L187.808 291.381L187.217 291.043C186.177 290.427 185.656 289.662 185.656 288.748C185.656 288.079 185.888 287.516 186.351 287.061C186.817 286.602 187.544 286.373 188.531 286.373C189.166 286.373 189.78 286.465 190.372 286.648V287.641C189.718 287.388 189.082 287.262 188.462 287.262C187.969 287.262 187.569 287.392 187.263 287.652C186.961 287.912 186.81 288.226 186.81 288.593C186.81 288.957 186.926 289.259 187.16 289.5C187.393 289.741 187.691 289.962 188.055 290.165L188.502 290.435L189.059 290.773L189.529 291.049C190.504 291.645 190.992 292.395 190.992 293.298C190.992 293.986 190.742 294.577 190.24 295.071C189.739 295.564 188.936 295.811 187.831 295.811C187.479 295.811 187.142 295.78 186.821 295.719C186.504 295.661 186.085 295.539 185.565 295.352ZM195.243 295.811C194.987 295.811 194.767 295.719 194.584 295.535C194.4 295.352 194.308 295.132 194.308 294.875C194.308 294.615 194.4 294.395 194.584 294.216C194.771 294.032 194.991 293.94 195.243 293.94C195.496 293.94 195.714 294.032 195.897 294.216C196.085 294.395 196.179 294.615 196.179 294.875C196.179 295.132 196.087 295.352 195.903 295.535C195.72 295.719 195.5 295.811 195.243 295.811ZM202.3 295.811C201.291 295.811 200.518 295.386 199.982 294.537C199.451 293.684 199.185 292.535 199.185 291.089C199.185 289.647 199.451 288.501 199.982 287.652C200.518 286.799 201.291 286.373 202.3 286.373C203.314 286.373 204.087 286.799 204.618 287.652C205.15 288.501 205.416 289.647 205.416 291.089C205.416 292.535 205.15 293.684 204.618 294.537C204.087 295.386 203.314 295.811 202.3 295.811ZM202.3 294.916C202.859 294.916 203.323 294.6 203.694 293.969C204.069 293.334 204.257 292.374 204.257 291.089C204.257 289.804 204.069 288.846 203.694 288.214C203.323 287.58 202.859 287.262 202.3 287.262C201.742 287.262 201.275 287.58 200.9 288.214C200.529 288.846 200.344 289.804 200.344 291.089C200.344 292.374 200.529 293.334 200.9 293.969C201.275 294.6 201.742 294.916 202.3 294.916ZM207.711 290.573C208.04 290.037 208.432 289.634 208.887 289.362C209.342 289.09 209.761 288.955 210.143 288.955C210.679 288.955 211.161 289.186 211.589 289.649C212.017 290.112 212.232 290.813 212.232 291.754C212.232 292.496 212.088 293.16 211.801 293.745C211.518 294.327 211.14 294.788 210.665 295.128C210.191 295.465 209.604 295.633 208.904 295.633C208.705 295.633 208.399 295.612 207.986 295.57C207.925 295.562 207.833 295.552 207.711 295.541H206.643V286.281H207.711V290.573ZM207.711 291.84V294.589C208.097 294.688 208.453 294.738 208.778 294.738C209.424 294.738 209.967 294.485 210.407 293.98C210.851 293.472 211.073 292.778 211.073 291.898C211.073 291.259 210.952 290.779 210.711 290.458C210.47 290.136 210.197 289.976 209.891 289.976C209.558 289.976 209.191 290.144 208.789 290.481C208.391 290.817 208.032 291.271 207.711 291.84ZM213.878 298.054V297.056C214.475 297.232 214.978 297.32 215.387 297.32C215.743 297.32 216.045 297.256 216.294 297.13C216.542 297.008 216.735 296.799 216.873 296.505C217.015 296.21 217.085 295.698 217.085 294.967V290.022H214.366V289.132H218.152V294.766C218.152 295.853 218.024 296.606 217.768 297.027C217.512 297.452 217.202 297.756 216.839 297.939C216.475 298.123 215.978 298.215 215.347 298.215C214.892 298.215 214.402 298.161 213.878 298.054ZM216.907 286.82C216.907 286.579 216.988 286.4 217.148 286.281C217.313 286.162 217.47 286.103 217.619 286.103C217.768 286.103 217.923 286.162 218.084 286.281C218.248 286.4 218.33 286.579 218.33 286.82C218.33 287.057 218.248 287.235 218.084 287.354C217.923 287.472 217.768 287.532 217.619 287.532C217.47 287.532 217.313 287.472 217.148 287.354C216.988 287.235 216.907 287.057 216.907 286.82ZM226.167 295.116C225.315 295.522 224.507 295.725 223.746 295.725C223.169 295.725 222.652 295.581 222.197 295.294C221.742 295.007 221.377 294.598 221.101 294.067C220.83 293.531 220.694 292.959 220.694 292.351C220.694 291.766 220.824 291.204 221.084 290.664C221.344 290.125 221.708 289.706 222.174 289.408C222.641 289.106 223.161 288.955 223.735 288.955C224.496 288.955 225.106 289.226 225.565 289.769C226.028 290.312 226.259 291.15 226.259 292.282V292.512H221.842C221.842 292.955 221.933 293.361 222.117 293.728C222.304 294.095 222.549 294.371 222.851 294.554C223.153 294.738 223.498 294.83 223.884 294.83C224.573 294.83 225.334 294.6 226.167 294.141V295.116ZM221.905 291.714H225.1V291.559C225.1 291.035 224.972 290.618 224.716 290.309C224.46 289.999 224.117 289.844 223.689 289.844C223.257 289.844 222.882 290.003 222.564 290.32C222.251 290.634 222.031 291.098 221.905 291.714ZM233.287 295.357C232.572 295.598 231.891 295.719 231.245 295.719C230.602 295.719 230.031 295.572 229.53 295.277C229.032 294.979 228.644 294.577 228.365 294.072C228.086 293.564 227.946 292.986 227.946 292.34C227.946 291.368 228.262 290.561 228.893 289.918C229.528 289.276 230.293 288.955 231.188 288.955C231.849 288.955 232.549 289.079 233.287 289.328V290.354C232.542 290.014 231.874 289.844 231.285 289.844C230.895 289.844 230.528 289.941 230.184 290.136C229.839 290.328 229.574 290.628 229.386 291.037C229.199 291.446 229.105 291.867 229.105 292.299C229.105 292.877 229.285 293.428 229.644 293.952C230.008 294.476 230.576 294.738 231.348 294.738C231.582 294.738 231.811 294.722 232.037 294.692C232.262 294.657 232.679 294.537 233.287 294.33V295.357ZM240.31 295.283C239.809 295.493 239.446 295.618 239.22 295.656C238.994 295.698 238.776 295.719 238.566 295.719C238.118 295.719 237.709 295.633 237.338 295.461C236.967 295.289 236.686 295.034 236.495 294.698C236.307 294.361 236.214 293.841 236.214 293.137V290.555H234.613V289.666H236.214V287.084H237.281V289.666H240.132V290.555H237.281V293.12C237.281 293.636 237.342 294.002 237.464 294.216C237.587 294.426 237.749 294.581 237.952 294.68C238.158 294.78 238.401 294.83 238.681 294.83C239.197 294.83 239.74 294.667 240.31 294.342V295.283ZM247.269 297.675C246.21 297.61 245.317 297.31 244.59 296.775C243.863 296.243 243.282 295.524 242.846 294.617C242.414 293.711 242.198 292.802 242.198 291.892C242.198 290.982 242.414 290.073 242.846 289.167C243.282 288.26 243.863 287.541 244.59 287.01C245.317 286.474 246.21 286.172 247.269 286.103V286.998C246.47 287.071 245.781 287.34 245.204 287.807C244.63 288.27 244.179 288.861 243.85 289.58C243.521 290.299 243.356 291.07 243.356 291.892C243.356 292.714 243.521 293.485 243.85 294.204C244.179 294.923 244.63 295.514 245.204 295.977C245.781 296.44 246.47 296.71 247.269 296.786V297.675ZM347.873 286.103C348.932 286.172 349.826 286.474 350.552 287.01C351.279 287.541 351.858 288.26 352.291 289.167C352.727 290.073 352.945 290.982 352.945 291.892C352.945 292.802 352.727 293.711 352.291 294.617C351.858 295.524 351.279 296.243 350.552 296.775C349.826 297.31 348.932 297.61 347.873 297.675V296.786C348.672 296.71 349.359 296.44 349.933 295.977C350.51 295.514 350.963 294.923 351.292 294.204C351.625 293.485 351.792 292.714 351.792 291.892C351.792 291.07 351.625 290.299 351.292 289.58C350.963 288.861 350.51 288.27 349.933 287.807C349.359 287.34 348.672 287.071 347.873 286.998V286.103Z" fill="#5A5A5A"/>
<path d="M252.094 289.844H251.326L250.723 286.281H252.68L252.094 289.844ZM257.614 295.541V290.555H256.191V289.666H257.614V289.368C257.614 288.522 257.709 287.897 257.901 287.492C258.092 287.086 258.386 286.753 258.784 286.493C259.186 286.233 259.715 286.103 260.373 286.103C260.871 286.103 261.375 286.155 261.888 286.258V287.274C261.333 287.09 260.842 286.998 260.413 286.998C260.073 286.998 259.773 287.061 259.513 287.188C259.253 287.314 259.048 287.52 258.899 287.807C258.753 288.09 258.681 288.572 258.681 289.253V289.666H261.222V290.555H258.681V295.541H257.614ZM264.975 295.541V290.022H263.196V289.132H266.042V294.652H267.826V295.541H264.975ZM264.797 286.82C264.797 286.579 264.879 286.4 265.043 286.281C265.208 286.162 265.363 286.103 265.508 286.103C265.657 286.103 265.814 286.162 265.979 286.281C266.143 286.4 266.225 286.579 266.225 286.82C266.225 287.057 266.143 287.235 265.979 287.354C265.814 287.472 265.657 287.532 265.508 287.532C265.363 287.532 265.208 287.472 265.043 287.354C264.879 287.235 264.797 287.057 264.797 286.82ZM271.957 295.541V287.176H270.041V286.281H273.024V294.652H275.026V295.541H271.957ZM282.623 295.116C281.77 295.522 280.963 295.725 280.201 295.725C279.624 295.725 279.108 295.581 278.652 295.294C278.197 295.007 277.832 294.598 277.557 294.067C277.285 293.531 277.149 292.959 277.149 292.351C277.149 291.766 277.279 291.204 277.539 290.664C277.799 290.125 278.163 289.706 278.629 289.408C279.096 289.106 279.616 288.955 280.19 288.955C280.951 288.955 281.561 289.226 282.02 289.769C282.483 290.312 282.714 291.15 282.714 292.282V292.512H278.297C278.297 292.955 278.388 293.361 278.572 293.728C278.759 294.095 279.004 294.371 279.306 294.554C279.609 294.738 279.953 294.83 280.339 294.83C281.028 294.83 281.789 294.6 282.623 294.141V295.116ZM278.36 291.714H281.555V291.559C281.555 291.035 281.427 290.618 281.171 290.309C280.915 289.999 280.572 289.844 280.144 289.844C279.712 289.844 279.337 290.003 279.02 290.32C278.706 290.634 278.486 291.098 278.36 291.714ZM289.702 295.438C289.037 295.686 288.44 295.811 287.912 295.811C287.216 295.811 286.576 295.625 285.99 295.254C285.405 294.879 284.95 294.325 284.625 293.59C284.3 292.852 284.137 292.018 284.137 291.089C284.137 290.167 284.298 289.339 284.619 288.605C284.94 287.87 285.394 287.314 285.979 286.935C286.564 286.556 287.209 286.367 287.912 286.367C288.44 286.367 289.037 286.491 289.702 286.74V287.796C289.087 287.44 288.475 287.262 287.866 287.262C287.407 287.262 286.987 287.419 286.604 287.733C286.226 288.046 285.92 288.507 285.686 289.115C285.453 289.72 285.336 290.377 285.336 291.089C285.336 291.812 285.457 292.479 285.698 293.091C285.939 293.703 286.247 294.162 286.621 294.468C286.996 294.77 287.411 294.921 287.866 294.921C288.471 294.921 289.083 294.744 289.702 294.388V295.438ZM294.046 295.719C293.128 295.719 292.393 295.399 291.842 294.761C291.292 294.118 291.016 293.309 291.016 292.334C291.016 291.359 291.292 290.551 291.842 289.913C292.393 289.274 293.128 288.955 294.046 288.955C294.96 288.955 295.692 289.274 296.243 289.913C296.794 290.551 297.069 291.359 297.069 292.334C297.069 293.309 296.794 294.118 296.243 294.761C295.692 295.399 294.96 295.719 294.046 295.719ZM294.046 294.83C294.615 294.83 295.069 294.608 295.405 294.164C295.742 293.72 295.91 293.11 295.91 292.334C295.91 291.561 295.742 290.953 295.405 290.509C295.069 290.066 294.615 289.844 294.046 289.844C293.472 289.844 293.017 290.066 292.68 290.509C292.343 290.953 292.175 291.561 292.175 292.334C292.175 293.11 292.343 293.72 292.68 294.164C293.017 294.608 293.472 294.83 294.046 294.83ZM298.463 295.541V289.132H299.53V290.532C299.836 290.039 300.205 289.653 300.638 289.373C301.07 289.094 301.502 288.955 301.934 288.955C302.313 288.955 302.657 289.056 302.967 289.259C303.277 289.458 303.493 289.72 303.615 290.045C303.742 290.37 303.805 291.009 303.805 291.961V295.541H302.738V291.829C302.738 291.213 302.707 290.808 302.646 290.613C302.588 290.414 302.479 290.251 302.319 290.125C302.162 289.999 301.99 289.936 301.802 289.936C301.428 289.936 301.024 290.114 300.592 290.469C300.163 290.825 299.81 291.271 299.53 291.806V295.541H298.463ZM310.879 295.283C310.378 295.493 310.014 295.618 309.789 295.656C309.563 295.698 309.345 295.719 309.135 295.719C308.687 295.719 308.278 295.633 307.907 295.461C307.536 295.289 307.255 295.034 307.063 294.698C306.876 294.361 306.782 293.841 306.782 293.137V290.555H305.182V289.666H306.782V287.084H307.849V289.666H310.701V290.555H307.849V293.12C307.849 293.636 307.911 294.002 308.033 294.216C308.155 294.426 308.318 294.581 308.521 294.68C308.727 294.78 308.97 294.83 309.249 294.83C309.766 294.83 310.309 294.667 310.879 294.342V295.283ZM317.907 295.116C317.054 295.522 316.247 295.725 315.486 295.725C314.908 295.725 314.392 295.581 313.937 295.294C313.482 295.007 313.116 294.598 312.841 294.067C312.569 293.531 312.434 292.959 312.434 292.351C312.434 291.766 312.564 291.204 312.824 290.664C313.084 290.125 313.447 289.706 313.914 289.408C314.38 289.106 314.901 288.955 315.474 288.955C316.236 288.955 316.846 289.226 317.305 289.769C317.767 290.312 317.999 291.15 317.999 292.282V292.512H313.581C313.581 292.955 313.673 293.361 313.856 293.728C314.044 294.095 314.289 294.371 314.591 294.554C314.893 294.738 315.237 294.83 315.624 294.83C316.312 294.83 317.073 294.6 317.907 294.141V295.116ZM313.644 291.714H316.84V291.559C316.84 291.035 316.712 290.618 316.455 290.309C316.199 289.999 315.857 289.844 315.428 289.844C314.996 289.844 314.621 290.003 314.304 290.32C313.99 290.634 313.77 291.098 313.644 291.714ZM319.634 295.541V289.132H320.701V290.532C321.007 290.039 321.376 289.653 321.808 289.373C322.241 289.094 322.673 288.955 323.105 288.955C323.484 288.955 323.828 289.056 324.138 289.259C324.448 289.458 324.664 289.72 324.786 290.045C324.912 290.37 324.975 291.009 324.975 291.961V295.541H323.908V291.829C323.908 291.213 323.878 290.808 323.816 290.613C323.759 290.414 323.65 290.251 323.489 290.125C323.333 289.999 323.16 289.936 322.973 289.936C322.598 289.936 322.195 290.114 321.762 290.469C321.334 290.825 320.98 291.271 320.701 291.806V295.541H319.634ZM332.049 295.283C331.548 295.493 331.185 295.618 330.959 295.656C330.734 295.698 330.516 295.719 330.305 295.719C329.858 295.719 329.449 295.633 329.078 295.461C328.707 295.289 328.425 295.034 328.234 294.698C328.047 294.361 327.953 293.841 327.953 293.137V290.555H326.352V289.666H327.953V287.084H329.02V289.666H331.872V290.555H329.02V293.12C329.02 293.636 329.081 294.002 329.204 294.216C329.326 294.426 329.489 294.581 329.691 294.68C329.898 294.78 330.141 294.83 330.42 294.83C330.936 294.83 331.48 294.667 332.049 294.342V295.283ZM333.822 295.203V294.072C334.251 294.351 334.704 294.548 335.182 294.663C335.66 294.774 336.066 294.83 336.398 294.83C336.938 294.83 337.326 294.744 337.563 294.571C337.8 294.395 337.919 294.177 337.919 293.917C337.919 293.745 337.863 293.598 337.752 293.476C337.641 293.353 337.366 293.202 336.926 293.022L336.559 292.873L335.819 292.581C335.023 292.271 334.522 291.984 334.316 291.72C334.105 291.46 334 291.142 334 290.768C334 290.24 334.203 289.806 334.608 289.465C335.018 289.125 335.679 288.955 336.593 288.955C337.278 288.955 337.926 289.054 338.538 289.253V290.223C337.835 289.97 337.173 289.844 336.553 289.844C336.102 289.844 335.748 289.924 335.492 290.085C335.239 290.242 335.113 290.439 335.113 290.676C335.113 290.905 335.224 291.089 335.446 291.227C335.664 291.364 336.02 291.523 336.513 291.703L337.236 291.967C337.898 292.208 338.362 292.47 338.63 292.753C338.898 293.036 339.032 293.39 339.032 293.814C339.032 294.369 338.818 294.826 338.389 295.185C337.965 295.541 337.284 295.719 336.347 295.719C335.528 295.719 334.687 295.547 333.822 295.203ZM343.834 289.844H343.065L342.463 286.281H344.419L343.834 289.844Z" fill="#E38800"/>
<path d="M56.8654 273.816C56.1501 274.057 55.4693 274.178 54.8229 274.178C54.1803 274.178 53.6085 274.031 53.1074 273.736C52.6102 273.438 52.222 273.036 51.9427 272.531C51.6635 272.023 51.5239 271.445 51.5239 270.799C51.5239 269.827 51.8395 269.02 52.4706 268.377C53.1055 267.735 53.8705 267.414 54.7655 267.414C55.4272 267.414 56.1272 267.538 56.8654 267.786V268.813C56.1195 268.473 55.4521 268.303 54.863 268.303C54.4729 268.303 54.1057 268.4 53.7615 268.595C53.4172 268.787 53.1514 269.087 52.964 269.496C52.7766 269.905 52.6829 270.326 52.6829 270.758C52.6829 271.336 52.8626 271.887 53.2222 272.411C53.5855 272.935 54.1535 273.197 54.9261 273.197C55.1595 273.197 55.389 273.181 55.6146 273.151C55.8403 273.116 56.2572 272.996 56.8654 272.789V273.816ZM61.1683 274.178C60.2504 274.178 59.516 273.858 58.9652 273.22C58.4144 272.577 58.139 271.768 58.139 270.793C58.139 269.818 58.4144 269.01 58.9652 268.372C59.516 267.733 60.2504 267.414 61.1683 267.414C62.0825 267.414 62.8149 267.733 63.3657 268.372C63.9165 269.01 64.1919 269.818 64.1919 270.793C64.1919 271.768 63.9165 272.577 63.3657 273.22C62.8149 273.858 62.0825 274.178 61.1683 274.178ZM61.1683 273.289C61.7382 273.289 62.1915 273.067 62.5281 272.623C62.8647 272.179 63.033 271.569 63.033 270.793C63.033 270.02 62.8647 269.412 62.5281 268.968C62.1915 268.525 61.7382 268.303 61.1683 268.303C60.5946 268.303 60.1394 268.525 59.8029 268.968C59.4663 269.412 59.298 270.02 59.298 270.793C59.298 271.569 59.4663 272.179 59.8029 272.623C60.1394 273.067 60.5946 273.289 61.1683 273.289ZM65.5861 274V267.591H66.6532V268.991C66.9592 268.498 67.3283 268.112 67.7605 267.832C68.1927 267.553 68.6249 267.414 69.0571 267.414C69.4358 267.414 69.78 267.515 70.0898 267.718C70.3997 267.917 70.6158 268.179 70.7382 268.504C70.8644 268.829 70.9275 269.468 70.9275 270.42V274H69.8604V270.288C69.8604 269.672 69.8298 269.267 69.7686 269.072C69.7112 268.873 69.6022 268.71 69.4415 268.584C69.2847 268.458 69.1126 268.395 68.9252 268.395C68.5503 268.395 68.1468 268.573 67.7146 268.928C67.2862 269.284 66.9324 269.73 66.6532 270.265V274H65.5861ZM72.7175 273.661V272.531C73.1459 272.81 73.5992 273.007 74.0773 273.122C74.5554 273.233 74.9608 273.289 75.2936 273.289C75.8329 273.289 76.2211 273.203 76.4583 273.03C76.6954 272.854 76.814 272.636 76.814 272.376C76.814 272.204 76.7585 272.057 76.6476 271.935C76.5367 271.812 76.2613 271.661 75.8214 271.481L75.4542 271.332L74.7141 271.04C73.9185 270.73 73.4175 270.443 73.2109 270.179C73.0006 269.919 72.8954 269.601 72.8954 269.227C72.8954 268.699 73.0981 268.265 73.5035 267.924C73.9128 267.584 74.5745 267.414 75.4886 267.414C76.1733 267.414 76.8216 267.513 77.4336 267.712V268.682C76.7298 268.429 76.0681 268.303 75.4485 268.303C74.9972 268.303 74.6434 268.383 74.3871 268.544C74.1346 268.701 74.0084 268.898 74.0084 269.135C74.0084 269.364 74.1193 269.548 74.3412 269.686C74.5592 269.823 74.9149 269.982 75.4083 270.162L76.1312 270.426C76.7929 270.667 77.2576 270.929 77.5254 271.212C77.7931 271.495 77.927 271.849 77.927 272.273C77.927 272.828 77.7128 273.285 77.2844 273.644C76.8599 274 76.179 274.178 75.2419 274.178C74.4234 274.178 73.5819 274.006 72.7175 273.661ZM85.0585 273.742C84.5574 273.952 84.1941 274.076 83.9684 274.115C83.7427 274.157 83.5247 274.178 83.3143 274.178C82.8668 274.178 82.4576 274.092 82.0865 273.92C81.7155 273.748 81.4344 273.493 81.2432 273.157C81.0557 272.82 80.962 272.3 80.962 271.596V269.014H79.3613V268.125H80.962V265.543H82.0292V268.125H84.8806V269.014H82.0292V271.579C82.0292 272.095 82.0904 272.46 82.2128 272.675C82.3352 272.885 82.4977 273.04 82.7004 273.139C82.907 273.239 83.1499 273.289 83.4291 273.289C83.9454 273.289 84.4886 273.126 85.0585 272.801V273.742Z" fill="#1EA4A9"/>
<path d="M93.8136 274V267.591H94.8807V268.991C95.1867 268.498 95.5558 268.112 95.988 267.832C96.4202 267.553 96.8525 267.414 97.2847 267.414C97.6633 267.414 98.0076 267.515 98.3174 267.718C98.6272 267.917 98.8433 268.179 98.9657 268.504C99.0919 268.829 99.155 269.468 99.155 270.42V274H98.0879V270.288C98.0879 269.672 98.0573 269.267 97.9961 269.072C97.9387 268.873 97.8297 268.71 97.6691 268.584C97.5122 268.458 97.3401 268.395 97.1527 268.395C96.7779 268.395 96.3743 268.573 95.9421 268.928C95.5138 269.284 95.16 269.73 94.8807 270.265V274H93.8136ZM106.2 273.575C105.347 273.981 104.54 274.184 103.779 274.184C103.202 274.184 102.685 274.04 102.23 273.753C101.775 273.466 101.41 273.057 101.134 272.526C100.863 271.99 100.727 271.418 100.727 270.81C100.727 270.225 100.857 269.663 101.117 269.123C101.377 268.584 101.741 268.165 102.207 267.867C102.674 267.565 103.194 267.414 103.768 267.414C104.529 267.414 105.139 267.685 105.598 268.228C106.061 268.771 106.292 269.609 106.292 270.741V270.971H101.875C101.875 271.414 101.966 271.82 102.15 272.187C102.337 272.554 102.582 272.83 102.884 273.013C103.186 273.197 103.531 273.289 103.917 273.289C104.605 273.289 105.367 273.059 106.2 272.6V273.575ZM101.938 270.173H105.133V270.018C105.133 269.494 105.005 269.077 104.749 268.768C104.493 268.458 104.15 268.303 103.722 268.303C103.29 268.303 102.915 268.462 102.597 268.779C102.284 269.093 102.064 269.557 101.938 270.173ZM108.197 274L107.153 267.591H108.145L108.754 271.493L108.914 272.399L109.069 271.493L110.09 267.591H111.048L112.202 271.493L112.402 272.399L112.534 271.493L113.148 267.591H113.969L112.93 274H111.932L110.704 269.875L110.509 268.968H110.48L110.303 269.869L109.235 274H108.197ZM117.618 274.27C116.608 274.27 115.835 273.845 115.3 272.996C114.768 272.143 114.502 270.994 114.502 269.548C114.502 268.106 114.768 266.96 115.3 266.111C115.835 265.258 116.608 264.832 117.618 264.832C118.631 264.832 119.404 265.258 119.936 266.111C120.467 266.96 120.733 268.106 120.733 269.548C120.733 270.994 120.467 272.143 119.936 272.996C119.404 273.845 118.631 274.27 117.618 274.27ZM117.618 273.375C118.176 273.375 118.641 273.059 119.012 272.428C119.387 271.793 119.574 270.833 119.574 269.548C119.574 268.263 119.387 267.305 119.012 266.673C118.641 266.039 118.176 265.721 117.618 265.721C117.059 265.721 116.593 266.039 116.218 266.673C115.847 267.305 115.661 268.263 115.661 269.548C115.661 270.833 115.847 271.793 116.218 272.428C116.593 273.059 117.059 273.375 117.618 273.375ZM123.028 269.031C123.357 268.496 123.749 268.092 124.204 267.821C124.659 267.549 125.078 267.414 125.461 267.414C125.996 267.414 126.478 267.645 126.906 268.108C127.335 268.571 127.549 269.272 127.549 270.213C127.549 270.955 127.406 271.619 127.119 272.204C126.836 272.786 126.457 273.247 125.983 273.587C125.508 273.924 124.921 274.092 124.221 274.092C124.022 274.092 123.716 274.071 123.303 274.029C123.242 274.021 123.15 274.011 123.028 274H121.961V264.74H123.028V269.031ZM123.028 270.299V273.048C123.414 273.147 123.77 273.197 124.095 273.197C124.741 273.197 125.285 272.944 125.724 272.439C126.168 271.931 126.39 271.237 126.39 270.357C126.39 269.718 126.27 269.238 126.029 268.917C125.788 268.595 125.514 268.435 125.208 268.435C124.875 268.435 124.508 268.603 124.107 268.94C123.709 269.276 123.349 269.73 123.028 270.299ZM129.196 276.513V275.515C129.792 275.691 130.295 275.779 130.704 275.779C131.06 275.779 131.362 275.715 131.611 275.589C131.86 275.467 132.053 275.258 132.19 274.964C132.332 274.669 132.403 274.157 132.403 273.426V268.481H129.683V267.591H133.47V273.225C133.47 274.312 133.342 275.065 133.085 275.486C132.829 275.911 132.519 276.215 132.156 276.398C131.793 276.582 131.295 276.674 130.664 276.674C130.209 276.674 129.72 276.62 129.196 276.513ZM132.225 265.279C132.225 265.038 132.305 264.859 132.466 264.74C132.63 264.621 132.787 264.562 132.936 264.562C133.085 264.562 133.24 264.621 133.401 264.74C133.565 264.859 133.648 265.038 133.648 265.279C133.648 265.516 133.565 265.694 133.401 265.813C133.24 265.931 133.085 265.991 132.936 265.991C132.787 265.991 132.63 265.931 132.466 265.813C132.305 265.694 132.225 265.516 132.225 265.279ZM141.485 273.575C140.632 273.981 139.825 274.184 139.064 274.184C138.486 274.184 137.97 274.04 137.515 273.753C137.059 273.466 136.694 273.057 136.419 272.526C136.147 271.99 136.011 271.418 136.011 270.81C136.011 270.225 136.142 269.663 136.402 269.123C136.662 268.584 137.025 268.165 137.492 267.867C137.958 267.565 138.479 267.414 139.052 267.414C139.813 267.414 140.423 267.685 140.882 268.228C141.345 268.771 141.577 269.609 141.577 270.741V270.971H137.159C137.159 271.414 137.251 271.82 137.434 272.187C137.622 272.554 137.867 272.83 138.169 273.013C138.471 273.197 138.815 273.289 139.201 273.289C139.89 273.289 140.651 273.059 141.485 272.6V273.575ZM137.222 270.173H140.418V270.018C140.418 269.494 140.29 269.077 140.033 268.768C139.777 268.458 139.435 268.303 139.006 268.303C138.574 268.303 138.199 268.462 137.882 268.779C137.568 269.093 137.348 269.557 137.222 270.173ZM148.605 273.816C147.89 274.057 147.209 274.178 146.562 274.178C145.92 274.178 145.348 274.031 144.847 273.736C144.35 273.438 143.961 273.036 143.682 272.531C143.403 272.023 143.263 271.445 143.263 270.799C143.263 269.827 143.579 269.02 144.21 268.377C144.845 267.735 145.61 267.414 146.505 267.414C147.167 267.414 147.867 267.538 148.605 267.786V268.813C147.859 268.473 147.192 268.303 146.603 268.303C146.212 268.303 145.845 268.4 145.501 268.595C145.157 268.787 144.891 269.087 144.703 269.496C144.516 269.905 144.422 270.326 144.422 270.758C144.422 271.336 144.602 271.887 144.962 272.411C145.325 272.935 145.893 273.197 146.666 273.197C146.899 273.197 147.128 273.181 147.354 273.151C147.58 273.116 147.997 272.996 148.605 272.789V273.816ZM155.627 273.742C155.126 273.952 154.763 274.076 154.537 274.115C154.312 274.157 154.094 274.178 153.883 274.178C153.436 274.178 153.026 274.092 152.655 273.92C152.284 273.748 152.003 273.493 151.812 273.157C151.625 272.82 151.531 272.3 151.531 271.596V269.014H149.93V268.125H151.531V265.543H152.598V268.125H155.449V269.014H152.598V271.579C152.598 272.095 152.659 272.46 152.782 272.675C152.904 272.885 153.067 273.04 153.269 273.139C153.476 273.239 153.719 273.289 153.998 273.289C154.514 273.289 155.057 273.126 155.627 272.801V273.742Z" fill="#5F9315"/>
<path d="M170.131 269.462V270.351H163.901V269.462H170.131ZM170.131 271.464V272.353H163.901V271.464H170.131Z" fill="#C82864"/>
<path d="M182.776 272.56C182.451 273.095 182.059 273.499 181.6 273.771C181.145 274.042 180.726 274.178 180.344 274.178C179.808 274.178 179.326 273.946 178.898 273.484C178.473 273.021 178.261 272.319 178.261 271.378C178.261 270.636 178.403 269.974 178.686 269.393C178.969 268.808 179.347 268.347 179.822 268.01C180.296 267.67 180.883 267.5 181.583 267.5C181.786 267.5 182.092 267.521 182.501 267.563C182.562 267.57 182.654 267.58 182.776 267.591V264.74H183.849V274H182.776V272.56ZM182.776 271.292V268.544C182.398 268.444 182.046 268.395 181.721 268.395C181.063 268.395 180.514 268.649 180.074 269.158C179.638 269.666 179.42 270.359 179.42 271.235C179.42 271.87 179.538 272.35 179.776 272.675C180.017 272.996 180.29 273.157 180.596 273.157C180.929 273.157 181.296 272.988 181.698 272.652C182.099 272.315 182.459 271.862 182.776 271.292ZM190.883 273.575C190.03 273.981 189.223 274.184 188.462 274.184C187.884 274.184 187.368 274.04 186.913 273.753C186.458 273.466 186.092 273.057 185.817 272.526C185.545 271.99 185.41 271.418 185.41 270.81C185.41 270.225 185.54 269.663 185.8 269.123C186.06 268.584 186.423 268.165 186.89 267.867C187.357 267.565 187.877 267.414 188.45 267.414C189.212 267.414 189.822 267.685 190.281 268.228C190.743 268.771 190.975 269.609 190.975 270.741V270.971H186.557C186.557 271.414 186.649 271.82 186.833 272.187C187.02 272.554 187.265 272.83 187.567 273.013C187.869 273.197 188.213 273.289 188.6 273.289C189.288 273.289 190.049 273.059 190.883 272.6V273.575ZM186.62 270.173H189.816V270.018C189.816 269.494 189.688 269.077 189.432 268.768C189.175 268.458 188.833 268.303 188.405 268.303C187.972 268.303 187.597 268.462 187.28 268.779C186.966 269.093 186.746 269.557 186.62 270.173ZM193.597 269.031C193.926 268.496 194.318 268.092 194.773 267.821C195.228 267.549 195.647 267.414 196.029 267.414C196.565 267.414 197.047 267.645 197.475 268.108C197.904 268.571 198.118 269.272 198.118 270.213C198.118 270.955 197.974 271.619 197.688 272.204C197.404 272.786 197.026 273.247 196.552 273.587C196.077 273.924 195.49 274.092 194.79 274.092C194.591 274.092 194.285 274.071 193.872 274.029C193.811 274.021 193.719 274.011 193.597 274V276.49H192.53V267.591H193.597V269.031ZM193.597 270.299V273.048C193.983 273.147 194.339 273.197 194.664 273.197C195.31 273.197 195.853 272.944 196.293 272.439C196.737 271.931 196.959 271.237 196.959 270.357C196.959 269.718 196.838 269.238 196.597 268.917C196.356 268.595 196.083 268.435 195.777 268.435C195.444 268.435 195.077 268.603 194.675 268.94C194.278 269.276 193.918 269.73 193.597 270.299ZM202.306 274.178C201.388 274.178 200.654 273.858 200.103 273.22C199.552 272.577 199.277 271.768 199.277 270.793C199.277 269.818 199.552 269.01 200.103 268.372C200.654 267.733 201.388 267.414 202.306 267.414C203.22 267.414 203.953 267.733 204.503 268.372C205.054 269.01 205.33 269.818 205.33 270.793C205.33 271.768 205.054 272.577 204.503 273.22C203.953 273.858 203.22 274.178 202.306 274.178ZM202.306 273.289C202.876 273.289 203.329 273.067 203.666 272.623C204.002 272.179 204.171 271.569 204.171 270.793C204.171 270.02 204.002 269.412 203.666 268.968C203.329 268.525 202.876 268.303 202.306 268.303C201.732 268.303 201.277 268.525 200.941 268.968C200.604 269.412 200.436 270.02 200.436 270.793C200.436 271.569 200.604 272.179 200.941 272.623C201.277 273.067 201.732 273.289 202.306 273.289ZM212.082 273.742C211.581 273.952 211.218 274.076 210.992 274.115C210.767 274.157 210.549 274.178 210.338 274.178C209.891 274.178 209.481 274.092 209.11 273.92C208.739 273.748 208.458 273.493 208.267 273.157C208.08 272.82 207.986 272.3 207.986 271.596V269.014H206.385V268.125H207.986V265.543H209.053V268.125H211.905V269.014H209.053V271.579C209.053 272.095 209.114 272.46 209.237 272.675C209.359 272.885 209.522 273.04 209.724 273.139C209.931 273.239 210.174 273.289 210.453 273.289C210.969 273.289 211.512 273.126 212.082 272.801V273.742ZM216.414 274.27C216.158 274.27 215.938 274.178 215.754 273.994C215.571 273.811 215.479 273.591 215.479 273.334C215.479 273.074 215.571 272.854 215.754 272.675C215.942 272.491 216.162 272.399 216.414 272.399C216.667 272.399 216.885 272.491 217.068 272.675C217.256 272.854 217.349 273.074 217.349 273.334C217.349 273.591 217.257 273.811 217.074 273.994C216.89 274.178 216.67 274.27 216.414 274.27ZM226.11 267.591V274H225.043V272.594C224.699 273.122 224.316 273.518 223.896 273.782C223.475 274.046 223.054 274.178 222.633 274.178C222.258 274.178 221.914 274.078 221.601 273.88C221.291 273.677 221.075 273.413 220.952 273.088C220.83 272.759 220.769 272.12 220.769 271.172V267.591H221.836V271.303C221.836 271.919 221.865 272.327 221.922 272.526C221.983 272.721 222.092 272.881 222.249 273.007C222.41 273.134 222.582 273.197 222.765 273.197C223.14 273.197 223.542 273.021 223.97 272.669C224.402 272.313 224.76 271.866 225.043 271.326V267.591H226.11ZM228.881 269.031C229.21 268.496 229.602 268.092 230.057 267.821C230.513 267.549 230.931 267.414 231.314 267.414C231.849 267.414 232.331 267.645 232.76 268.108C233.188 268.571 233.402 269.272 233.402 270.213C233.402 270.955 233.259 271.619 232.972 272.204C232.689 272.786 232.31 273.247 231.836 273.587C231.362 273.924 230.775 274.092 230.075 274.092C229.876 274.092 229.57 274.071 229.157 274.029C229.095 274.021 229.004 274.011 228.881 274V276.49H227.814V267.591H228.881V269.031ZM228.881 270.299V273.048C229.268 273.147 229.623 273.197 229.948 273.197C230.595 273.197 231.138 272.944 231.578 272.439C232.021 271.931 232.243 271.237 232.243 270.357C232.243 269.718 232.123 269.238 231.882 268.917C231.641 268.595 231.367 268.435 231.061 268.435C230.729 268.435 230.361 268.603 229.96 268.94C229.562 269.276 229.203 269.73 228.881 270.299ZM236.672 274V265.635H234.756V264.74H237.74V273.111H239.742V274H236.672ZM244.647 274.178C243.729 274.178 242.995 273.858 242.444 273.22C241.893 272.577 241.618 271.768 241.618 270.793C241.618 269.818 241.893 269.01 242.444 268.372C242.995 267.733 243.729 267.414 244.647 267.414C245.561 267.414 246.294 267.733 246.845 268.372C247.396 269.01 247.671 269.818 247.671 270.793C247.671 271.768 247.396 272.577 246.845 273.22C246.294 273.858 245.561 274.178 244.647 274.178ZM244.647 273.289C245.217 273.289 245.67 273.067 246.007 272.623C246.344 272.179 246.512 271.569 246.512 270.793C246.512 270.02 246.344 269.412 246.007 268.968C245.67 268.525 245.217 268.303 244.647 268.303C244.074 268.303 243.618 268.525 243.282 268.968C242.945 269.412 242.777 270.02 242.777 270.793C242.777 271.569 242.945 272.179 243.282 272.623C243.618 273.067 244.074 273.289 244.647 273.289ZM253.276 272.56C252.951 273.095 252.559 273.499 252.1 273.771C251.645 274.042 251.226 274.178 250.844 274.178C250.308 274.178 249.826 273.946 249.398 273.484C248.973 273.021 248.761 272.319 248.761 271.378C248.761 270.636 248.903 269.974 249.186 269.393C249.469 268.808 249.847 268.347 250.322 268.01C250.796 267.67 251.383 267.5 252.083 267.5C252.286 267.5 252.592 267.521 253.001 267.563C253.062 267.57 253.154 267.58 253.276 267.591H254.349V272.118C254.349 272.891 254.429 273.518 254.59 274H253.477C253.393 273.648 253.326 273.168 253.276 272.56ZM253.276 271.292V268.544C252.898 268.444 252.546 268.395 252.221 268.395C251.563 268.395 251.014 268.649 250.574 269.158C250.138 269.666 249.92 270.359 249.92 271.235C249.92 271.87 250.038 272.35 250.276 272.675C250.517 272.996 250.79 273.157 251.096 273.157C251.429 273.157 251.796 272.988 252.198 272.652C252.599 272.315 252.959 271.862 253.276 271.292ZM260.402 272.56C260.077 273.095 259.685 273.499 259.226 273.771C258.771 274.042 258.352 274.178 257.969 274.178C257.434 274.178 256.952 273.946 256.524 273.484C256.099 273.021 255.887 272.319 255.887 271.378C255.887 270.636 256.028 269.974 256.311 269.393C256.594 268.808 256.973 268.347 257.447 268.01C257.922 267.67 258.509 267.5 259.209 267.5C259.411 267.5 259.717 267.521 260.127 267.563C260.188 267.57 260.28 267.58 260.402 267.591V264.74H261.475V274H260.402V272.56ZM260.402 271.292V268.544C260.023 268.444 259.671 268.395 259.346 268.395C258.688 268.395 258.14 268.649 257.7 269.158C257.264 269.666 257.046 270.359 257.046 271.235C257.046 271.87 257.164 272.35 257.401 272.675C257.642 272.996 257.916 273.157 258.222 273.157C258.555 273.157 258.922 272.988 259.323 272.652C259.725 272.315 260.085 271.862 260.402 271.292ZM268.509 273.575C267.656 273.981 266.849 274.184 266.088 274.184C265.51 274.184 264.994 274.04 264.539 273.753C264.083 273.466 263.718 273.057 263.443 272.526C263.171 271.99 263.035 271.418 263.035 270.81C263.035 270.225 263.165 269.663 263.426 269.123C263.686 268.584 264.049 268.165 264.516 267.867C264.982 267.565 265.502 267.414 266.076 267.414C266.837 267.414 267.447 267.685 267.906 268.228C268.369 268.771 268.601 269.609 268.601 270.741V270.971H264.183C264.183 271.414 264.275 271.82 264.458 272.187C264.646 272.554 264.89 272.83 265.193 273.013C265.495 273.197 265.839 273.289 266.225 273.289C266.914 273.289 267.675 273.059 268.509 272.6V273.575ZM264.246 270.173H267.442V270.018C267.442 269.494 267.314 269.077 267.057 268.768C266.801 268.458 266.459 268.303 266.03 268.303C265.598 268.303 265.223 268.462 264.906 268.779C264.592 269.093 264.372 269.557 264.246 270.173ZM270.781 274V267.591H271.848V268.991C272.181 268.464 272.561 268.07 272.99 267.809C273.422 267.546 273.902 267.414 274.43 267.414C274.816 267.414 275.202 267.473 275.589 267.591V269.904H274.562V268.441C274.382 268.41 274.24 268.395 274.137 268.395C273.739 268.395 273.349 268.551 272.967 268.865C272.584 269.179 272.211 269.649 271.848 270.276V274H270.781ZM282.554 276.134C281.494 276.069 280.601 275.769 279.874 275.234C279.148 274.702 278.566 273.983 278.13 273.076C277.698 272.17 277.482 271.261 277.482 270.351C277.482 269.441 277.698 268.532 278.13 267.626C278.566 266.719 279.148 266 279.874 265.469C280.601 264.933 281.494 264.631 282.554 264.562V265.457C281.754 265.53 281.066 265.799 280.488 266.266C279.915 266.729 279.463 267.32 279.134 268.039C278.805 268.758 278.641 269.529 278.641 270.351C278.641 271.173 278.805 271.944 279.134 272.663C279.463 273.382 279.915 273.973 280.488 274.436C281.066 274.899 281.754 275.168 282.554 275.245V276.134ZM285.841 274V269.014H284.418V268.125H285.841V267.827C285.841 266.981 285.937 266.356 286.128 265.951C286.319 265.545 286.614 265.212 287.012 264.952C287.413 264.692 287.943 264.562 288.601 264.562C289.098 264.562 289.603 264.614 290.115 264.717V265.733C289.561 265.549 289.069 265.457 288.641 265.457C288.301 265.457 288 265.52 287.74 265.646C287.48 265.773 287.276 265.979 287.126 266.266C286.981 266.549 286.908 267.031 286.908 267.712V268.125H289.45V269.014H286.908V274H285.841ZM293.202 274V268.481H291.424V267.591H294.269V273.111H296.054V274H293.202ZM293.024 265.279C293.024 265.038 293.107 264.859 293.271 264.74C293.435 264.621 293.59 264.562 293.736 264.562C293.885 264.562 294.042 264.621 294.206 264.74C294.371 264.859 294.453 265.038 294.453 265.279C294.453 265.516 294.371 265.694 294.206 265.813C294.042 265.931 293.885 265.991 293.736 265.991C293.59 265.991 293.435 265.931 293.271 265.813C293.107 265.694 293.024 265.516 293.024 265.279ZM300.184 274V265.635H298.268V264.74H301.252V273.111H303.254V274H300.184ZM310.85 273.575C309.997 273.981 309.19 274.184 308.429 274.184C307.851 274.184 307.335 274.04 306.88 273.753C306.425 273.466 306.059 273.057 305.784 272.526C305.512 271.99 305.377 271.418 305.377 270.81C305.377 270.225 305.507 269.663 305.767 269.123C306.027 268.584 306.39 268.165 306.857 267.867C307.324 267.565 307.844 267.414 308.417 267.414C309.179 267.414 309.789 267.685 310.248 268.228C310.71 268.771 310.942 269.609 310.942 270.741V270.971H306.524C306.524 271.414 306.616 271.82 306.8 272.187C306.987 272.554 307.232 272.83 307.534 273.013C307.836 273.197 308.18 273.289 308.567 273.289C309.255 273.289 310.016 273.059 310.85 272.6V273.575ZM306.587 270.173H309.783V270.018C309.783 269.494 309.655 269.077 309.399 268.768C309.142 268.458 308.8 268.303 308.372 268.303C307.939 268.303 307.565 268.462 307.247 268.779C306.933 269.093 306.714 269.557 306.587 270.173ZM312.589 264.562C313.648 264.631 314.541 264.933 315.268 265.469C315.995 266 316.574 266.719 317.006 267.626C317.442 268.532 317.66 269.441 317.66 270.351C317.66 271.261 317.442 272.17 317.006 273.076C316.574 273.983 315.995 274.702 315.268 275.234C314.541 275.769 313.648 276.069 312.589 276.134V275.245C313.388 275.168 314.074 274.899 314.648 274.436C315.226 273.973 315.679 273.382 316.008 272.663C316.341 271.944 316.507 271.173 316.507 270.351C316.507 269.529 316.341 268.758 316.008 268.039C315.679 267.32 315.226 266.729 314.648 266.266C314.074 265.799 313.388 265.53 312.589 265.457V264.562Z" fill="#5A5A5A"/>
<path d="M54.4135 215.775H51.3468V224H52.9683V221.297H54.4135C55.9998 221.297 57.2218 220.075 57.2218 218.536C57.2218 216.997 55.9998 215.775 54.4135 215.775ZM54.4135 219.782H52.9683V217.291H54.4135C55.1068 217.291 55.612 217.819 55.612 218.536C55.612 219.241 55.1068 219.782 54.4135 219.782ZM62.7894 224H64.5402L62.7189 220.898C63.6589 220.463 64.3052 219.535 64.3052 218.501C64.3052 216.997 63.0832 215.775 61.5674 215.775H58.2774V224H59.8989V221.145H61.1327L62.7894 224ZM59.8989 217.291H61.5674C62.1784 217.291 62.6837 217.819 62.6837 218.501C62.6837 219.182 62.1784 219.723 61.5674 219.723H59.8989V217.291ZM69.2924 224.165C71.6659 224.165 73.5694 222.284 73.5694 219.887C73.5694 217.479 71.6659 215.61 69.2924 215.61C66.9189 215.61 65.0272 217.479 65.0272 219.887C65.0272 222.284 66.9189 224.165 69.2924 224.165ZM69.2924 222.578C67.8002 222.578 66.6369 221.462 66.6369 219.887C66.6369 218.301 67.8002 217.185 69.2924 217.185C70.7847 217.185 71.9479 218.301 71.9479 219.887C71.9479 221.462 70.7847 222.578 69.2924 222.578ZM77.7758 215.775H74.7091V224H76.3306V221.297H77.7758C79.3621 221.297 80.5841 220.075 80.5841 218.536C80.5841 216.997 79.3621 215.775 77.7758 215.775ZM77.7758 219.782H76.3306V217.291H77.7758C78.4691 217.291 78.9743 217.819 78.9743 218.536C78.9743 219.241 78.4691 219.782 77.7758 219.782ZM83.2612 222.449V220.604H86.375V219.077H83.2612V217.326H86.6687V215.775H81.6397V224H86.7275V222.449H83.2612ZM92.3824 224H94.1332L92.3119 220.898C93.2519 220.463 93.8982 219.535 93.8982 218.501C93.8982 216.997 92.6762 215.775 91.1604 215.775H87.8704V224H89.4919V221.145H90.7257L92.3824 224ZM89.4919 217.291H91.1604C91.7714 217.291 92.2767 217.819 92.2767 218.501C92.2767 219.182 91.7714 219.723 91.1604 219.723H89.4919V217.291ZM100.356 215.775H94.3048V217.326H96.5138V224H98.1353V217.326H100.356V215.775ZM107.771 215.775H105.938L104.152 219.206L102.366 215.775H100.533L103.341 220.792V224H104.951V220.792L107.771 215.775ZM114.563 215.775H111.497V224H113.118V221.297H114.563C116.15 221.297 117.372 220.075 117.372 218.536C117.372 216.997 116.15 215.775 114.563 215.775ZM114.563 219.782H113.118V217.291H114.563C115.257 217.291 115.762 217.819 115.762 218.536C115.762 219.241 115.257 219.782 114.563 219.782ZM122.259 224.165C124.633 224.165 126.536 222.284 126.536 219.887C126.536 217.479 124.633 215.61 122.259 215.61C119.886 215.61 117.994 217.479 117.994 219.887C117.994 222.284 119.886 224.165 122.259 224.165ZM122.259 222.578C120.767 222.578 119.604 221.462 119.604 219.887C119.604 218.301 120.767 217.185 122.259 217.185C123.751 217.185 124.915 218.301 124.915 219.887C124.915 221.462 123.751 222.578 122.259 222.578ZM129.297 222.449V215.775H127.676V224H132.435V222.449H129.297ZM133.356 215.775V224H134.977V215.775H133.356ZM140.401 224.165C141.917 224.165 143.244 223.401 143.938 222.226L142.539 221.415C142.152 222.132 141.341 222.578 140.401 222.578C138.791 222.578 137.734 221.462 137.734 219.887C137.734 218.301 138.791 217.185 140.401 217.185C141.341 217.185 142.14 217.631 142.539 218.36L143.938 217.549C143.233 216.374 141.905 215.61 140.401 215.61C137.91 215.61 136.124 217.479 136.124 219.887C136.124 222.284 137.91 224.165 140.401 224.165ZM144.934 215.775V224H146.555V215.775H144.934ZM149.699 222.449V220.604H152.813V219.077H149.699V217.326H153.107V215.775H148.078V224H153.165V222.449H149.699ZM157.117 224.165C158.867 224.165 160.101 223.225 160.101 221.685C160.101 220.005 158.715 219.57 157.41 219.159C156.165 218.783 155.848 218.513 155.848 218.007C155.848 217.537 156.247 217.185 156.929 217.185C157.763 217.185 158.209 217.62 158.503 218.242L159.866 217.455C159.314 216.304 158.28 215.61 156.929 215.61C155.519 215.61 154.226 216.503 154.226 218.054C154.226 219.617 155.448 220.146 156.705 220.51C157.927 220.863 158.48 221.098 158.48 221.709C158.48 222.167 158.139 222.578 157.164 222.578C156.141 222.578 155.566 222.085 155.272 221.321L153.885 222.132C154.332 223.354 155.436 224.165 157.117 224.165Z" fill="#9494A7"/>
<defs>
<filter id="filter0_d_658_14715" x="0.0606518" y="0.279833" width="517.879" height="359.879" filterUnits="userSpaceOnUse" color-interpolation-filters="sRGB">
<feFlood flood-opacity="0" result="BackgroundImageFix"/>
<feColorMatrix in="SourceAlpha" type="matrix" values="0 0 0 0 0 0 0 0 0 0 0 0 0 0 0 0 0 0 127 0" result="hardAlpha"/>
<feOffset dy="7.21918"/>
<feGaussianBlur stdDeviation="15.4697"/>
<feColorMatrix type="matrix" values="0 0 0 0 0.0705882 0 0 0 0 0.0666667 0 0 0 0 0.152941 0 0 0 0.12 0"/>
<feBlend mode="normal" in2="BackgroundImageFix" result="effect1_dropShadow_658_14715"/>
<feBlend mode="normal" in="SourceGraphic" in2="effect1_dropShadow_658_14715" result="shape"/>
</filter>
<filter id="filter1_d_658_14715" x="31" y="47" width="456" height="47.9792" filterUnits="userSpaceOnUse" color-interpolation-filters="sRGB">
<feFlood flood-opacity="0" result="BackgroundImageFix"/>
<feColorMatrix in="SourceAlpha" type="matrix" values="0 0 0 0 0 0 0 0 0 0 0 0 0 0 0 0 0 0 127 0" result="hardAlpha"/>
<feOffset dy="0.979167"/>
<feColorMatrix type="matrix" values="0 0 0 0 0 0 0 0 0 0 0 0 0 0 0 0 0 0 0.06 0"/>
<feBlend mode="normal" in2="BackgroundImageFix" result="effect1_dropShadow_658_14715"/>
<feBlend mode="normal" in="SourceGraphic" in2="effect1_dropShadow_658_14715" result="shape"/>
</filter>
</defs>
</svg>
