<svg width="20" height="21" viewBox="0 0 20 21" fill="none" xmlns="http://www.w3.org/2000/svg">
<path d="M10.0003 2.1665C5.39795 2.1665 1.66699 5.89746 1.66699 10.4998C1.66699 15.1022 5.39795 18.8332 10.0003 18.8332C14.6027 18.8332 18.3337 15.1022 18.3337 10.4998C18.3337 5.89746 14.6027 2.1665 10.0003 2.1665Z" fill="#90ECF4"/>
<path fill-rule="evenodd" clip-rule="evenodd" d="M13.0896 8.24408C13.415 8.56951 13.415 9.09715 13.0896 9.42259L9.75625 12.7559C9.43081 13.0814 8.90317 13.0814 8.57774 12.7559L6.91107 11.0893C6.58563 10.7638 6.58563 10.2362 6.91107 9.91074C7.23651 9.58531 7.76414 9.58531 8.08958 9.91074L9.16699 10.9882L11.9111 8.24408C12.2365 7.91864 12.7641 7.91864 13.0896 8.24408Z" fill="#444BD3"/>
</svg>
