<svg xmlns="http://www.w3.org/2000/svg" width="88" height="36" fill="none"><path fill="#121127" d="M33.498 7.875v19.024h6.793c5.57 0 8.843-3.533 8.843-9.558s-3.287-9.466-8.843-9.466h-6.793Zm3.326 2.874h3.12c3.712 0 5.8 2.347 5.8 6.605 0 4.337-2.062 6.67-5.8 6.67h-3.12V10.75ZM51.545 26.899h3.21V7.875h-3.21v19.024ZM66.537 22.72c-.348 1.16-1.482 1.925-2.978 1.925-2.1 0-3.441-1.503-3.441-3.744v-.198h9.552v-1.068c0-4.245-2.424-7-6.304-7-3.944 0-6.445 2.913-6.445 7.33 0 4.456 2.475 7.21 6.574 7.21 3.236 0 5.633-1.818 6.046-4.455h-3.004Zm-3.158-7.541c1.843 0 3.081 1.384 3.146 3.362h-6.381c.129-1.951 1.43-3.362 3.235-3.362ZM76.85 21.89l2.836 5.009h3.506l-4.344-7.067 4.395-6.908h-3.519l-2.72 4.905h-.064l-2.759-4.905h-3.61l4.37 7-4.408 6.975h3.416l2.836-5.01h.065Z"/><path fill="#121127" fill-opacity=".32" fill-rule="evenodd" d="M13.209 31.5C20.495 31.495 26.4 25.453 26.4 18S20.495 4.505 13.21 4.5c5.163 2.206 8.79 7.42 8.79 13.5s-3.627 11.293-8.79 13.5Z" clip-rule="evenodd"/><path fill="#121127" d="M0 9.3c0-2.65 2.074-4.8 4.632-4.8H7.7c7.29 0 13.2 6.045 13.2 13.5 0 7.456-5.91 13.5-13.2 13.5H4.632C2.074 31.5 0 29.351 0 26.7V9.3Z"/></svg>