<svg xmlns="http://www.w3.org/2000/svg" width="90" height="36" fill="none"><path fill="#444BD3" d="M34.26 7.875v19.024h6.948c5.695 0 9.044-3.533 9.044-9.558s-3.362-9.466-9.044-9.466H34.26Zm3.401 2.874h3.19c3.797 0 5.933 2.347 5.933 6.605 0 4.337-2.11 6.67-5.932 6.67h-3.19V10.75ZM52.717 26.899h3.282V7.875h-3.282v19.024ZM68.049 22.72c-.356 1.16-1.516 1.924-3.046 1.924-2.148 0-3.52-1.502-3.52-3.744v-.197h9.77v-1.068c0-4.245-2.48-7-6.447-7-4.035 0-6.592 2.913-6.592 7.33 0 4.455 2.531 7.21 6.724 7.21 3.309 0 5.76-1.819 6.183-4.455h-3.072Zm-3.23-7.541c1.885 0 3.15 1.384 3.217 3.362H61.51c.132-1.952 1.463-3.362 3.309-3.362ZM78.597 21.89l2.9 5.009h3.586l-4.443-7.067 4.496-6.908h-3.6l-2.781 4.905h-.066l-2.821-4.905h-3.692l4.47 7-4.51 6.975h3.494l2.9-5.01h.067Z"/><path fill="#444BD3" fill-opacity=".32" fill-rule="evenodd" d="M13.509 31.5c7.451-.005 13.49-6.047 13.49-13.5S20.962 4.505 13.51 4.5c5.28 2.206 8.99 7.42 8.99 13.5s-3.71 11.293-8.99 13.5Z" clip-rule="evenodd"/><path fill="#444BD3" d="M0 9.3c0-2.65 2.12-4.8 4.737-4.8h3.138c7.456 0 13.5 6.045 13.5 13.5 0 7.456-6.044 13.5-13.5 13.5H4.737C2.12 31.5 0 29.351 0 26.7V9.3Z"/></svg>