<svg xmlns="http://www.w3.org/2000/svg" width="48" height="48" fill="none"><path fill="url(#a)" d="M26.818 3.182a4.5 4.5 0 0 1 6.364 0l11.636 11.636a4.5 4.5 0 0 1 0 6.364L33.182 32.818a4.5 4.5 0 0 1-6.364 0L15.182 21.182a4.5 4.5 0 0 1 0-6.364L26.818 3.182Z"/><path fill="#90ECF4" d="M5.334 21.333A2.667 2.667 0 0 0 2.667 24v13.333A2.667 2.667 0 0 0 5.334 40h13.333V24A2.667 2.667 0 0 0 16 21.333H5.334Z"/><path fill="#444BD3" d="M22.15 25.333h-3.483V40h8a2.667 2.667 0 0 0 2.667-2.667v-5.215c0-.75-.316-1.465-.87-1.97l-4.517-4.119a2.667 2.667 0 0 0-1.797-.696Z"/><path fill="#444BD3" fill-rule="evenodd" d="M9.334 42.667a2.667 2.667 0 1 0 0-5.334 2.667 2.667 0 0 0 0 5.334Zm16.552-.782c.5-.5.781-1.178.781-1.885h-5.333a2.666 2.666 0 0 0 4.552 1.886Z" clip-rule="evenodd"/><defs><linearGradient id="a" x1="30" x2="30" y1="0" y2="36" gradientUnits="userSpaceOnUse"><stop stop-color="#DEDEDE"/><stop offset="1" stop-color="#DEDEDE" stop-opacity="0"/></linearGradient></defs></svg>