<svg xmlns="http://www.w3.org/2000/svg" width="48" height="48" fill="none"><path fill="url(#a)" d="M26.818 3.182a4.5 4.5 0 0 1 6.364 0l11.636 11.636a4.5 4.5 0 0 1 0 6.364L33.182 32.818a4.5 4.5 0 0 1-6.364 0L15.182 21.182a4.5 4.5 0 0 1 0-6.364L26.818 3.182Z"/><path fill="#90ECF4" d="M4 39.033v-10.5c0-2.987 0-4.48.581-5.62a5.333 5.333 0 0 1 2.331-2.332C8.052 20 9.546 20 12.533 20h6.934c2.987 0 4.48 0 5.62.581a5.333 5.333 0 0 1 2.332 2.331c.581 1.14.581 2.634.581 5.621v1.6c0 2.987 0 4.48-.581 5.622a5.334 5.334 0 0 1-2.331 2.33c-1.14.582-2.634.582-5.621.582h-5.655c-.668 0-1.002 0-1.316.077a2.667 2.667 0 0 0-.785.333c-.273.172-.505.413-.97.894l-1.238 1.284c-1.72 1.783-2.58 2.674-3.321 2.742a2 2 0 0 1-1.696-.685C4 42.749 4 41.51 4 39.032Z"/><path fill="#444BD3" d="M10.666 25.333a1.333 1.333 0 1 0 0 2.667h10.667a1.333 1.333 0 1 0 0-2.667H10.666ZM10.666 30.667a1.333 1.333 0 1 0 0 2.666h4a1.333 1.333 0 0 0 0-2.666h-4Z"/><defs><linearGradient id="a" x1="30" x2="30" y1="0" y2="36" gradientUnits="userSpaceOnUse"><stop stop-color="#DEDEDE"/><stop offset="1" stop-color="#DEDEDE" stop-opacity="0"/></linearGradient></defs></svg>