<svg xmlns="http://www.w3.org/2000/svg" width="48" height="48" fill="none"><path fill="url(#a)" d="M26.818 3.182a4.5 4.5 0 0 1 6.364 0l11.636 11.636a4.5 4.5 0 0 1 0 6.364L33.182 32.818a4.5 4.5 0 0 1-6.364 0L15.182 21.182a4.5 4.5 0 0 1 0-6.364L26.818 3.182Z"/><path fill="#90ECF4" fill-rule="evenodd" d="M17.058 33.057c.52-.52 1.364-.52 1.885 0l8.667 8.667a1.333 1.333 0 0 1-1.886 1.886l-8.666-8.667a1.333 1.333 0 0 1 0-1.886Z" clip-rule="evenodd"/><path fill="#444BD3" d="M13.333 20a9.333 9.333 0 1 0 0 18.667 9.333 9.333 0 0 0 0-18.667Z"/><defs><linearGradient id="a" x1="30" x2="30" y1="0" y2="36" gradientUnits="userSpaceOnUse"><stop stop-color="#DEDEDE"/><stop offset="1" stop-color="#DEDEDE" stop-opacity="0"/></linearGradient></defs></svg>