<svg xmlns="http://www.w3.org/2000/svg" width="48" height="48" fill="none"><path fill="url(#a)" d="M26.818 3.182a4.5 4.5 0 0 1 6.364 0l11.636 11.636a4.5 4.5 0 0 1 0 6.364L33.182 32.818a4.5 4.5 0 0 1-6.364 0L15.182 21.182a4.5 4.5 0 0 1 0-6.364L26.818 3.182Z"/><path fill="#90ECF4" d="M5.333 44c0-.736.597-1.333 1.333-1.333h18.667a1.333 1.333 0 0 1 0 2.666H6.666A1.333 1.333 0 0 1 5.333 44Z"/><path fill="#444BD3" d="M18.279 19.836a4 4 0 0 1 5.657 0l1.562 1.563a4 4 0 0 1 0 5.656l-.555.555-7.219-7.22.555-.554ZM7.73 30.396a2 2 0 0 0-.395.75l-1.943 6.99a1.467 1.467 0 0 0 1.806 1.806l6.99-1.944a2 2 0 0 0 .75-.394L7.73 30.396Z"/><path fill="#90ECF4" d="m24.943 27.61-7.219-7.22-9.876 9.877c-.042.041-.081.084-.119.129l7.209 7.208c.044-.037.087-.077.129-.118l9.876-9.876Z"/><defs><linearGradient id="a" x1="30" x2="30" y1="0" y2="36" gradientUnits="userSpaceOnUse"><stop stop-color="#DEDEDE"/><stop offset="1" stop-color="#DEDEDE" stop-opacity="0"/></linearGradient></defs></svg>